<svg id="Laag_1" data-name="Laag 1" xmlns="http://www.w3.org/2000/svg" viewBox="0 0 486.54 172.96"><defs><style>.cls-1{fill:none;stroke:#b2395d;stroke-miterlimit:10;stroke-width:0.78px;}.cls-2{fill:#064d6f;}.cls-3{fill:#276380;}.cls-4{fill:#00999d;}</style></defs><path class="cls-1" d="M221.36,72.78" transform="translate(-9 -22.31)"/><polygon class="cls-2" points="227.64 0 227.59 0.13 196.21 78.43 181.83 0 145.39 0 92.22 132.7 129.29 132.7 158.51 56.22 174.56 132.7 211.46 132.7 240.76 56.22 264.08 0 227.64 0"/><polygon class="cls-3" points="267.73 19.87 245.43 78.47 256.81 132.7 288.38 132.49 267.73 19.87"/><polygon class="cls-4" points="396.04 0.11 358.8 0.11 326.63 35.05 314.54 0.11 277.3 0.11 299.57 64.46 290.95 73.83 297.13 107.57 309.74 93.87 323.18 132.7 360.42 132.7 336.81 64.46 396.04 0.11"/><path class="cls-2" d="M25.29,182c0,5.16-3.79,8.86-9.13,8.86H9V173.16h7.16C21.51,173.16,25.29,176.82,25.29,182Zm-5,0a4.12,4.12,0,0,0-4.36-4.37h-2v8.77h2A4.15,4.15,0,0,0,20.29,182Z" transform="translate(-9 -22.31)"/><path class="cls-2" d="M28.62,182c0-5.4,4.06-9.29,9.74-9.29s9.72,3.87,9.72,9.29-4,9.29-9.72,9.29S28.62,187.41,28.62,182ZM43,182a4.66,4.66,0,1,0-4.64,4.76A4.54,4.54,0,0,0,43,182Z" transform="translate(-9 -22.31)"/><path class="cls-2" d="M63.82,186.62v4.23H52.29V173.16H63.6v4.21H57.14V180H63v4H57.14v2.65Z" transform="translate(-9 -22.31)"/><path class="cls-2" d="M84.11,173.16v17.69h-4l-7-9.6v9.6H68.33V173.16H72.6l6.79,9.28v-9.28Z" transform="translate(-9 -22.31)"/><path class="cls-2" d="M120.65,173.16l-5.45,17.69h-4.29l-3.4-8.54-3.32,8.54H99.9l-5.54-17.69h5.23l2.87,10.19,4.21-10.1h1.69l4.29,10.11,2.81-10.2Z" transform="translate(-9 -22.31)"/><path class="cls-2" d="M135.76,186.62v4.23H124.23V173.16h11.32v4.21h-6.47V180h5.81v4h-5.81v2.65Z" transform="translate(-9 -22.31)"/><path class="cls-2" d="M163.25,173.16v17.69h-4l-7-9.6v9.6h-4.72V173.16h4.26l6.79,9.28v-9.28Z" transform="translate(-9 -22.31)"/><path class="cls-2" d="M178,190.85l-2.91-5.44-2.94,5.44h-5.53l5.32-9.21-5-8.48h5.5l2.65,5,2.68-5h5.42l-5,8.57,5.32,9.12Z" transform="translate(-9 -22.31)"/><path class="cls-2" d="M186.68,192.94a2,2,0,0,0,2-2.09h-2.2v-4.37h4.59v4a4.58,4.58,0,0,1-4.4,4.79Z" transform="translate(-9 -22.31)"/><path class="cls-4" d="M219.31,182c0,5.16-3.79,8.86-9.13,8.86H203V173.16h7.16C215.53,173.16,219.31,176.82,219.31,182Zm-5,0a4.12,4.12,0,0,0-4.36-4.37h-2v8.77h2A4.15,4.15,0,0,0,214.31,182Z" transform="translate(-9 -22.31)"/><path class="cls-4" d="M233.46,188h-6.27l-1,2.88H221l6.95-17.69h4.76l7.1,17.69h-5.37Zm-3.15-9.29-1.93,5.48h3.89Z" transform="translate(-9 -22.31)"/><path class="cls-4" d="M259,173.16v17.69h-4l-7-9.6v9.6h-4.72V173.16h4.27l6.79,9.28v-9.28Z" transform="translate(-9 -22.31)"/><path class="cls-4" d="M287.26,173.16l-6.77,17.69H276L269,173.16h5.56l3.61,11,3.53-11Z" transform="translate(-9 -22.31)"/><path class="cls-4" d="M302.29,186.62v4.23H290.75V173.16h11.32v4.21h-6.46V180h5.8v4h-5.8v2.65Z" transform="translate(-9 -22.31)"/><path class="cls-4" d="M313.44,185.44h-1.77v5.41H306.8V173.16h7.67c3.81,0,6.57,2.56,6.57,6.26a5.66,5.66,0,0,1-2.8,5l3.51,6.44h-5.44Zm-1.77-4.11h2.23a1.93,1.93,0,1,0,0-3.84h-2.23Z" transform="translate(-9 -22.31)"/><path class="cls-4" d="M341.89,182c0,5.16-3.79,8.86-9.13,8.86H325.6V173.16h7.16C338.11,173.16,341.89,176.82,341.89,182Zm-5,0a4.12,4.12,0,0,0-4.36-4.37h-2v8.77h2A4.15,4.15,0,0,0,336.89,182Z" transform="translate(-9 -22.31)"/><path class="cls-4" d="M370.26,173.16l-5.45,17.69h-4.29l-3.39-8.54-3.33,8.54h-4.29L344,173.16h5.23l2.87,10.19,4.22-10.1H358l4.29,10.11,2.81-10.2Z" transform="translate(-9 -22.31)"/><path class="cls-4" d="M373.84,173.16h4.94v17.69h-4.94Z" transform="translate(-9 -22.31)"/><path class="cls-4" d="M382.61,184.78v-.69h4.91v.44a2,2,0,1,0,4,0V173.16h4.9v11.62c0,3.84-2.76,6.51-6.85,6.51S382.61,188.63,382.61,184.78Z" transform="translate(-9 -22.31)"/><path class="cls-4" d="M417.14,173.16v17.69h-4l-7-9.6v9.6h-4.72V173.16h4.26l6.8,9.28v-9.28Z" transform="translate(-9 -22.31)"/><path class="cls-4" d="M435.55,177.55h-4.81v13.3h-4.89v-13.3H421v-4.39h14.51Z" transform="translate(-9 -22.31)"/><path class="cls-4" d="M463.45,190.85l-1.38-10.19-4.69,10.22h-1.44l-4.69-10.22-1.36,10.19H445l2.68-17.69h4.86l4.17,9.62,4.19-9.62h4.87l2.65,17.69Z" transform="translate(-9 -22.31)"/><path class="cls-4" d="M482.11,190.85l-2.91-5.44-2.94,5.44h-5.53l5.32-9.21-5-8.48h5.49l2.66,5,2.67-5h5.42l-5,8.57,5.32,9.12Z" transform="translate(-9 -22.31)"/><path class="cls-4" d="M491,186.48h4.56v4.37H491Zm.1-13.83h4.38V185h-4.38Z" transform="translate(-9 -22.31)"/></svg>