<?xml version="1.0" encoding="utf-8"?>
<!-- Generator: Adobe Illustrator 26.4.1, SVG Export Plug-In . SVG Version: 6.00 Build 0)  -->
<svg version="1.1" id="Laag_1" xmlns="http://www.w3.org/2000/svg" xmlns:xlink="http://www.w3.org/1999/xlink" x="0px" y="0px"
	 viewBox="0 0 1672 1055" style="enable-background:new 0 0 1672 1055;" xml:space="preserve">
<style type="text/css">
	.st0{fill:#E25E0E;}
</style>
<g transform="translate(0.000000,1055.000000) scale(0.100000,-0.100000)">
	<path d="M3830,7888c-448-1184-882-2334-966-2555l-152-403h637h637l554,1538c304,845,555,1539,557,1541s5,2,8,0
		c2-3,190-695,418-1539l414-1535l651-3c359-1,652,0,652,4c0,3,192,668,426,1477c403,1394,522,1776,544,1750c4-4,145-557,315-1228
		c169-671,311-1225,314-1231s269,254,597,585l592,596l-531,1578l-531,1577h-640h-641l-489-1590c-270-875-492-1590-495-1590
		s-179,715-391,1588l-385,1587l-641,3l-641,2L3830,7888z"/>
	<path class="st0" d="M10014,9858c35-101,229-662,431-1246l368-1064l-375-376c-325-327-2595-2616-3147-3174l-196-198h735l735,1
		l1318,1311c725,721,1319,1309,1321,1307c1-2,119-343,262-756l259-753h713c391,0,712,3,712,8c0,4-205,599-455,1322l-455,1314l38,41
		c91,95,2229,2421,2235,2433c7,9-136,12-700,12h-708l-620-675c-341-371-624-673-630-671c-5,1-114,304-242,672l-231,669l-716,3
		l-715,2L10014,9858z"/>
	<path d="M10144,5245l-319-314l428-1c235,0,427,3,427,7c0,18-205,623-211,623C10465,5560,10319,5418,10144,5245z"/>
	<path d="M690,3936v-124l1868-6c1027-4,2317-8,2867-9l999-2l103,133l103,132H3660H690V3936z"/>
	<path d="M9379,3969c-47-52-100-111-118-131l-33-38h3401h3401v119v118l-2332,7c-1283,3-2760,9-3283,12l-950,6L9379,3969z"/>
	<path d="M5051,3125c-222-40-389-153-463-311c-24-52-32-83-36-153c-8-148,38-256,153-358c69-62,135-98,324-180
		c155-66,204-102,222-163c23-75-33-174-119-212c-49-22-159-26-220-7c-78,23-122,86-130,186l-5,63h-198h-199v-63
		c0-225,142-403,385-484c73-24,94-27,240-27c183-1,264,16,389,82c274,144,349,485,159,719c-66,82-179,150-398,239
		c-145,59-205,108-205,167c0,72,40,131,115,170c57,29,179,36,229,12c49-24,85-79,93-143l6-52h198h199v43c-1,174-113,350-273,426
		C5395,3137,5215,3155,5051,3125z"/>
	<path d="M1025,3108c-7-21-285-1638-285-1659c0-18,10-19,200-19c110,0,200,2,200,5s15,92,34,198c18,105,55,367,82,580s50,384,51,380
		s41-255,88-558c47-302,88-562,91-577l6-28h134h134l279,558c154,306,280,554,280,551c1-3-33-156-74-340c-70-308-145-696-145-748
		c0-21,2-21,199-21h199l6,27c9,41,286,1646,286,1655c0,5-120,7-267,6l-267-3l-275-569c-254-524-276-567-282-535c-4,19-40,276-80,572
		l-74,537h-258C1090,3120,1028,3117,1025,3108z"/>
	<path d="M3082,2285c-243-459-442-839-442-845s74-10,218-10h219l76,160l76,160h260h259l6-27c3-16,13-88,22-160l17-133h208
		c117,0,209,4,209,9c0,10-297,1622-305,1659c-5,22-7,22-193,22h-188L3082,2285z M3675,2339c19-145,33-265,31-266c-2-2-75-2-163-1
		l-160,3l126,267c69,146,128,265,129,263C3640,2603,3657,2483,3675,2339z"/>
	<path d="M5957,2963c-15-87-27-161-27-165c0-5,107-8,238-8h238l-112-647c-62-357-116-663-119-680l-6-33h204h203l113,658
		c62,361,115,667,118,680l5,22h244c134,0,244,3,244,8c0,4,11,70,25,146c14,77,25,148,25,158c0,17-32,18-683,18h-683L5957,2963z"/>
	<path d="M7515,3108c-6-19-285-1651-285-1665c0-10,119-13,563-13h564l27,153c14,83,26,155,26,160c0,4-162,7-360,7
		c-281,0-360,3-360,13c0,6,14,94,32,195l32,182h308c169,0,308,2,308,5c0,2,11,69,25,147s25,146,25,150c0,5-137,8-305,8
		c-284,0-305,1-304,18c0,9,12,85,27,167l27,150l365,3l365,2l24,138c13,75,25,149,28,165l6,27h-567C7641,3120,7519,3117,7515,3108z"
		/>
	<path d="M8806,3109c-7-21-286-1644-286-1663c0-14,22-16,199-16c198,0,199,0,204,23c3,12,27,147,53,300l48,277h103h102l46-147
		c26-82,68-215,94-298l47-150l217-3c119-1,217,1,217,5s-51,160-112,347c-67,199-109,341-102,343c41,14,147,87,194,133
		c108,108,155,239,148,420c-3,88-8,114-30,163c-56,119-170,207-325,249c-71,19-112,21-445,25C8873,3121,8809,3120,8806,3109z
		 M9495,2774c141-72,96-323-72-405c-43-21-62-23-190-24c-78,0-144,3-147,6c-6,5,58,400,70,438c3,10,34,12,152,9
		C9432,2795,9461,2792,9495,2774z"/>
	<path d="M10305,3099c-9-37-285-1642-285-1656c0-10,44-13,199-13h200l10,53c6,28,26,147,46,262c19,116,38,220,40,231
		c5,21,10,22,212,26c238,5,311,18,438,77c103,49,180,113,238,198c59,87,88,175,95,285c9,163-29,276-130,384c-43,46-81,74-132,99
		c-132,65-152,67-558,72l-367,5L10305,3099z M10995,2778c69-37,96-89,96-187c0-120-76-221-193-256c-35-10-95-15-185-15
		c-117,0-133,2-133,16c0,17,65,397,75,443l6,23l152-4C10926,2795,10973,2790,10995,2778z"/>
	<path d="M11662,2292c-78-455-142-835-142-844c0-17,32-18,540-18c297,0,540,1,540,3c0,1,11,67,25,145s25,149,25,157
		c0,13-50,15-338,17l-338,3l118,675c64,371,117,678,118,683c0,4-91,7-202,7h-203L11662,2292z"/>
	<path d="M13526,3093c-8-16-208-394-445-842c-237-447-431-815-431-817s100-4,223-4h223l75,160l74,160h262c147,0,263-4,263-9
		s9-76,20-157c11-82,20-150,20-151c0-2,95-3,211-3h211l-6,28c-8,38-306,1652-306,1658c0,2-85,4-190,4h-189L13526,3093z M13695,2325
		c17-137,31-251,30-253c-1-1-75-1-163,0l-162,3l128,269c75,159,129,261,131,250C13661,2584,13677,2463,13695,2325z"/>
	<path d="M14640,3111c0-10-277-1612-286-1653l-6-28h204h204l89,515c49,283,92,511,96,507c3-4,86-218,184-476c97-259,184-487,192-508
		l15-38h193h193l6,28c11,53,286,1641,286,1652c0,6-68,10-200,10c-199,0-200,0-205-22c-3-13-41-234-86-493c-44-258-83-481-87-494
		c-6-18-50,90-202,493l-195,516h-197C14728,3120,14640,3116,14640,3111z"/>
	<path d="M690,635V520h7670h7670v115v115H8360H690V635z"/>
</g>
</svg>
