<svg id="Laag_1" data-name="Laag 1" xmlns="http://www.w3.org/2000/svg" viewBox="0 0 486.54 172.95"><defs><style>.cls-1,.cls-2{fill:#fff;}.cls-1{stroke:#b2395d;stroke-miterlimit:10;stroke-width:0.78px;}</style></defs><path class="cls-1" d="M221.36,54.72" transform="translate(-9 -4.25)"/><polygon class="cls-2" points="227.64 0 227.59 0.13 196.21 78.43 181.83 0 145.39 0 92.22 132.7 129.29 132.7 158.51 56.22 174.56 132.7 211.46 132.7 240.76 56.22 264.09 0 227.64 0"/><polygon class="cls-2" points="267.73 19.87 245.43 78.46 256.81 132.7 288.37 132.48 267.73 19.87"/><polygon class="cls-2" points="396.04 0.11 358.79 0.11 326.63 35.05 314.54 0.11 277.3 0.11 299.57 64.46 290.95 73.83 297.14 107.57 309.74 93.87 323.18 132.7 360.42 132.7 336.81 64.46 396.04 0.11"/><path class="cls-2" d="M25.29,163.93c0,5.16-3.79,8.86-9.13,8.86H9V155.1h7.16C21.51,155.1,25.29,158.76,25.29,163.93Zm-5,0a4.13,4.13,0,0,0-4.37-4.37h-2v8.76h2A4.14,4.14,0,0,0,20.29,163.93Z" transform="translate(-9 -4.25)"/><path class="cls-2" d="M28.62,163.94c0-5.41,4.06-9.29,9.74-9.29s9.71,3.87,9.71,9.29-4,9.29-9.71,9.29S28.62,169.35,28.62,163.94Zm14.38,0a4.66,4.66,0,1,0-4.64,4.76A4.54,4.54,0,0,0,43,163.94Z" transform="translate(-9 -4.25)"/><path class="cls-2" d="M63.82,168.56v4.23H52.29V155.1H63.6v4.21H57.13v2.61h5.81v4H57.13v2.65h6.69Z" transform="translate(-9 -4.25)"/><path class="cls-2" d="M84.11,155.1v17.69h-4l-7-9.6v9.6H68.33V155.1h4.26l6.79,9.28V155.1Z" transform="translate(-9 -4.25)"/><path class="cls-2" d="M120.65,155.1l-5.45,17.69h-4.29l-3.39-8.54-3.33,8.54H99.9L94.36,155.1h5.23l2.87,10.19,4.21-10.11h1.69l4.29,10.11,2.81-10.2h5.19Z" transform="translate(-9 -4.25)"/><path class="cls-2" d="M135.76,168.56v4.23H124.23V155.1h11.32v4.21h-6.47v2.61h5.81v4h-5.81v2.65h6.68Z" transform="translate(-9 -4.25)"/><path class="cls-2" d="M163.25,155.1v17.69h-4l-7-9.6v9.6h-4.72V155.1h4.26l6.79,9.28V155.1Z" transform="translate(-9 -4.25)"/><path class="cls-2" d="M178,172.79l-2.91-5.43-2.94,5.43h-5.53l5.32-9.21-5-8.48h5.5l2.65,5,2.67-5h5.42l-5,8.57,5.32,9.12Z" transform="translate(-9 -4.25)"/><path class="cls-2" d="M186.68,174.88a2,2,0,0,0,2-2.09h-2.2v-4.37h4.59v4a4.57,4.57,0,0,1-4.4,4.79v-2.32Z" transform="translate(-9 -4.25)"/><path class="cls-2" d="M219.31,163.93c0,5.16-3.79,8.86-9.13,8.86H203V155.1h7.16C215.53,155.1,219.31,158.76,219.31,163.93Zm-5,0a4.13,4.13,0,0,0-4.37-4.37h-2v8.76h2A4.14,4.14,0,0,0,214.31,163.93Z" transform="translate(-9 -4.25)"/><path class="cls-2" d="M233.46,169.91h-6.27l-1,2.87H221l6.95-17.69h4.76l7.1,17.69h-5.37Zm-3.15-9.29-1.94,5.48h3.89Z" transform="translate(-9 -4.25)"/><path class="cls-2" d="M259,155.1v17.69h-4l-7-9.6v9.6h-4.72V155.1h4.26l6.79,9.28V155.1Z" transform="translate(-9 -4.25)"/><path class="cls-2" d="M287.26,155.1l-6.77,17.69H276L269,155.1h5.56l3.61,11,3.52-11Z" transform="translate(-9 -4.25)"/><path class="cls-2" d="M302.29,168.56v4.23H290.76V155.1h11.32v4.21h-6.47v2.61h5.81v4h-5.81v2.65h6.68Z" transform="translate(-9 -4.25)"/><path class="cls-2" d="M313.44,167.38h-1.77v5.41H306.8V155.1h7.67c3.81,0,6.58,2.56,6.58,6.26a5.65,5.65,0,0,1-2.81,5l3.51,6.43h-5.44Zm-1.77-4.11h2.23a1.93,1.93,0,1,0,0-3.84h-2.23Z" transform="translate(-9 -4.25)"/><path class="cls-2" d="M341.89,163.93c0,5.16-3.79,8.86-9.13,8.86H325.6V155.1h7.16C338.11,155.1,341.89,158.76,341.89,163.93Zm-5,0a4.13,4.13,0,0,0-4.37-4.37h-2v8.76h2A4.14,4.14,0,0,0,336.89,163.93Z" transform="translate(-9 -4.25)"/><path class="cls-2" d="M370.26,155.1l-5.45,17.69h-4.29l-3.39-8.54-3.33,8.54h-4.29L344,155.1h5.23l2.87,10.19,4.21-10.11H358l4.29,10.11,2.81-10.2h5.19Z" transform="translate(-9 -4.25)"/><path class="cls-2" d="M373.84,155.1h4.94v17.69h-4.94Z" transform="translate(-9 -4.25)"/><path class="cls-2" d="M382.61,166.72V166h4.91v.45a2,2,0,1,0,4,0V155.1h4.91v11.62c0,3.83-2.76,6.51-6.86,6.51S382.61,170.57,382.61,166.72Z" transform="translate(-9 -4.25)"/><path class="cls-2" d="M417.14,155.1v17.69h-4l-7-9.6v9.6h-4.72V155.1h4.26l6.79,9.28V155.1Z" transform="translate(-9 -4.25)"/><path class="cls-2" d="M435.55,159.49h-4.8v13.3h-4.89v-13.3h-4.8V155.1h14.5v4.39Z" transform="translate(-9 -4.25)"/><path class="cls-2" d="M463.45,172.79l-1.38-10.19-4.69,10.21h-1.44l-4.69-10.21-1.36,10.18H445l2.67-17.69h4.87l4.16,9.62,4.19-9.62h4.87l2.65,17.69h-4.91Z" transform="translate(-9 -4.25)"/><path class="cls-2" d="M482.11,172.79l-2.91-5.43-2.94,5.43h-5.53l5.32-9.21-5-8.48h5.5l2.65,5,2.67-5h5.42l-5,8.57,5.32,9.12Z" transform="translate(-9 -4.25)"/><path class="cls-2" d="M491,168.42h4.56v4.37H491Zm.1-13.83h4.38V166.9h-4.38Z" transform="translate(-9 -4.25)"/></svg>