<?xml version="1.0" encoding="utf-8"?>
<!-- Generator: Adobe Illustrator 26.4.1, SVG Export Plug-In . SVG Version: 6.00 Build 0)  -->
<svg version="1.1" id="Laag_1" xmlns="http://www.w3.org/2000/svg" xmlns:xlink="http://www.w3.org/1999/xlink" x="0px" y="0px"
	 viewBox="0 0 1251.2 680" style="enable-background:new 0 0 1251.2 680;" xml:space="preserve">
<style type="text/css">
	.st0{fill:#5B5B5B;}
	.st1{fill:#E25E0E;}
</style>
<g transform="translate(0.000000,1055.000000) scale(0.100000,-0.100000)">
	<path class="st0" d="M1374,8128C926,6944,492,5794,408,5573l-152-403h637h637l554,1538c304,845,555,1539,557,1541s5,2,8,0
		c2-3,190-695,418-1539l414-1535l651-3c359-1,652,0,652,4c0,3,192,668,426,1477c403,1394,522,1776,544,1750c4-4,145-557,315-1228
		c169-671,311-1225,314-1231s269,254,597,585l592,596l-531,1578l-531,1577h-640h-641l-489-1590c-270-875-492-1590-495-1590
		s-179,715-391,1588l-385,1587l-641,3l-641,2L1374,8128z"/>
	<path class="st1" d="M7558,10098c35-101,229-662,431-1246l368-1064l-375-376c-325-327-2595-2616-3147-3174l-196-198h735l735,1
		l1318,1311c725,721,1319,1309,1321,1307c1-2,119-343,262-756l259-753h713c391,0,712,3,712,8c0,4-205,599-455,1322l-455,1314l38,41
		c91,95,2229,2421,2235,2433c7,9-136,12-700,12h-708l-620-675c-341-371-624-673-630-671c-5,1-114,304-242,672l-231,669l-716,3
		l-715,2L7558,10098z"/>
	<path class="st0" d="M7688,5485l-319-314l428-1c235,0,427,3,427,7c0,18-205,623-211,623C8009,5800,7863,5658,7688,5485z"/>
</g>
</svg>
