<?xml version="1.0" encoding="utf-8"?>
<!-- Generator: Adobe Illustrator 26.4.1, SVG Export Plug-In . SVG Version: 6.00 Build 0)  -->
<svg version="1.1" id="Laag_1" xmlns="http://www.w3.org/2000/svg" xmlns:xlink="http://www.w3.org/1999/xlink" x="0px" y="0px"
	 viewBox="0 0 559 348.8" style="enable-background:new 0 0 559 348.8;" xml:space="preserve">
<style type="text/css">
	.st0{fill:#1D1D1B;}
	.st1{fill:none;stroke:#FFFFFF;stroke-width:2.76;stroke-miterlimit:10;}
	.st2{fill:#E25D10;}
	.st3{fill:#FFFFFF;}
</style>
<polygon class="st0" points="364.9,188.2 302,1.4 302,1.4 253.5,1.4 253.5,1.6 219.5,112 192.6,1.4 144.1,1.4 73.4,188.6 
	122.7,188.6 161.6,80.7 190.6,188.6 239.8,188.6 271,80.7 273.2,75 302,188.6 "/>
<polygon class="st1" points="364.9,188.2 302,1.4 302,1.4 253.5,1.4 253.5,1.6 219.5,112 192.6,1.4 144.1,1.4 73.4,188.6 
	122.7,188.6 161.6,80.7 190.6,188.6 239.8,188.6 271,80.7 273.2,75 302,188.6 "/>
<polygon class="st2" points="230.6,228 365.5,92.1 334.1,1.4 388.9,1.4 405.3,48.9 449,1.4 504.6,1.4 420.5,92.8 453.8,189 399,189 
	380.6,136 288.2,228 "/>
<path class="st3" d="M507.7,0.1h-59.3l-0.8,0.9l-41.7,45.3L390.5,1.9l-0.6-1.8h-57.7l1.2,3.6l30.5,88.1l-133,134l-4.6,4.6h60.2h1.1
	l0.8-0.8l91.6-91.2l17.3,50l0.6,1.8h57.7l-1.2-3.6L422,93.1l81.5-88.5L507.7,0.1z M501.5,2.8l-82.6,89.7l32.9,95.1h-51.9l-18.7-54.1
	l-94.7,94.2h-53.7L367,92.5L336,2.8h51.9l16.9,48.7l44.8-48.7H501.5z"/>
<rect x="1.4" y="335.5" class="st0" width="553.9" height="10.9"/>
<path class="st3" d="M2.7,337.1h552.6v8.8H2.7V337.1z M555.4,334.2H0v14.6h558v-14.6H555.4L555.4,334.2z"/>
<g>
	<polygon class="st0" points="33.6,252.3 39.3,294.1 59.5,252.3 78.4,252.3 67.9,312.5 53.7,312.5 56.3,297.8 62.4,270.5 
		41.3,312.5 31.9,312.5 25.1,269 21.3,299.2 18.9,312.5 4.8,312.5 15.2,252.3 	"/>
	<path class="st3" d="M78.4,252.3L68,312.5H53.7l2.6-14.8l6.1-27.2l-21.1,42h-9.4L25.1,269l-3.8,30.2l-2.4,13.4H4.8l10.4-60.2h18.4
		l5.8,41.8l20.2-41.8L78.4,252.3 M83.1,248.3H57l-1.1,2.3l-14.4,29.9l-4-28.7l-0.5-3.4H11.8l-0.6,3.3L0.9,311.8L0,316.5h22.2
		l0.6-3.3l2.4-13.4l0-0.1v-0.1l0.3-2.1l2.4,15.6l0.5,3.4h15.3l1.1-2.2l6.8-13.6l-1.9,11.1l-0.8,4.7h22.3l0.6-3.3L82.3,253
		L83.1,248.3L83.1,248.3L83.1,248.3z"/>
</g>
<g>
	<polygon class="st0" points="33.6,252.3 39.3,294.1 59.5,252.3 78.4,252.3 67.9,312.5 53.7,312.5 56.3,297.8 62.4,270.5 
		41.3,312.5 31.9,312.5 25.1,269 21.3,299.2 18.9,312.5 4.8,312.5 15.2,252.3 	"/>
</g>
<g>
	<path class="st0" d="M99.4,290.1h12.5l-2.7-20.8L99.4,290.1z M113.3,301.2H94.1l-5.3,11.3H73.2l31.9-60.2h13.3l11.1,60.2h-14.7
		L113.3,301.2L113.3,301.2z"/>
	<path class="st3" d="M118.4,252.3l11.1,60.2h-14.7l-1.4-11.3H94.1l-5.3,11.3H73.2l31.9-60.2H118.4 M99.4,290.1h12.5l-2.7-20.8
		L99.4,290.1 M121.7,248.3h-19.1l-1.1,2.1l-31.9,60.2l-3.1,5.9h24.8l1.1-2.3l4.2-9h13.2l1,7.8l0.4,3.5h23l-0.9-4.7l-11.1-60.2
		L121.7,248.3L121.7,248.3L121.7,248.3z M105.7,286.1l1.3-2.7l0.3,2.7H105.7L105.7,286.1z"/>
</g>
<g>
	<path class="st0" d="M99.4,290.1h12.5l-2.7-20.8L99.4,290.1z M113.3,301.2H94.1l-5.3,11.3H73.2l31.9-60.2h13.3l11.1,60.2h-14.7
		L113.3,301.2L113.3,301.2z"/>
	<path class="st3" d="M118.4,252.3l11.1,60.2h-14.7l-1.4-11.3H94.1l-5.3,11.3H73.2l31.9-60.2H118.4 M99.4,290.1h12.5l-2.7-20.8
		L99.4,290.1 M121.7,248.3h-19.1l-1.1,2.1l-31.9,60.2l-3.1,5.9h24.8l1.1-2.3l4.2-9h13.2l1,7.8l0.4,3.5h23l-0.9-4.7l-11.1-60.2
		L121.7,248.3L121.7,248.3L121.7,248.3z M105.7,286.1l1.3-2.7l0.3,2.7H105.7L105.7,286.1z"/>
</g>
<g>
	<polygon class="st0" points="240.6,263.5 223.1,263.5 214.6,312.5 200.4,312.5 209,263.5 191.7,263.5 193.7,252.3 242.6,252.3 	"/>
	<path class="st3" d="M242.6,252.3l-1.9,11.2h-17.5l-8.5,49h-14.2l8.5-49h-17.2l2-11.2H242.6 M247.3,248.3h-57l-0.6,3.3l-2,11.2
		l-0.8,4.7h17.3l-7.7,44.3l-0.8,4.7H218l0.6-3.3l7.9-45.7H244l0.6-3.3l1.9-11.2L247.3,248.3L247.3,248.3L247.3,248.3z"/>
</g>
<g>
	<polygon class="st0" points="240.6,263.5 223.1,263.5 214.6,312.5 200.4,312.5 209,263.5 191.7,263.5 193.7,252.3 242.6,252.3 	"/>
	<path class="st3" d="M242.6,252.3l-1.9,11.2h-17.5l-8.5,49h-14.2l8.5-49h-17.2l2-11.2H242.6 M247.3,248.3h-57l-0.6,3.3l-2,11.2
		l-0.8,4.7h17.3l-7.7,44.3l-0.8,4.7H218l0.6-3.3l7.9-45.7H244l0.6-3.3l1.9-11.2L247.3,248.3L247.3,248.3L247.3,248.3z"/>
</g>
<g>
	<polygon class="st0" points="279.2,287 257,287 254.5,301.4 280.7,301.4 278.8,312.5 238.4,312.5 248.8,252.3 289.2,252.3 
		287.3,263.5 261.1,263.5 258.9,276.2 281,276.2 	"/>
	<path class="st3" d="M289.2,252.3l-1.9,11.2h-26.2l-2.2,12.7H281l-1.9,10.8H257l-2.5,14.4h26.2l-1.9,11.2h-40.3l10.4-60.2
		L289.2,252.3 M294,248.3h-48.5l-0.6,3.3l-10.4,60.2l-0.8,4.7h48.4l0.6-3.3l1.9-11.2l0.8-4.7h-26.2l1.1-6.4h22.1l0.6-3.3l1.9-10.8
		l0.8-4.7h-22.2l0.8-4.7h26.2l0.6-3.3l1.9-11.2L294,248.3L294,248.3L294,248.3z"/>
</g>
<g>
	<polygon class="st0" points="279.2,287 257,287 254.5,301.4 280.7,301.4 278.8,312.5 238.4,312.5 248.8,252.3 289.2,252.3 
		287.3,263.5 261.1,263.5 258.9,276.2 281,276.2 	"/>
	<path class="st3" d="M289.2,252.3l-1.9,11.2h-26.2l-2.2,12.7H281l-1.9,10.8H257l-2.5,14.4h26.2l-1.9,11.2h-40.3l10.4-60.2
		L289.2,252.3 M294,248.3h-48.5l-0.6,3.3l-10.4,60.2l-0.8,4.7h48.4l0.6-3.3l1.9-11.2l0.8-4.7h-26.2l1.1-6.4h22.1l0.6-3.3l1.9-10.8
		l0.8-4.7h-22.2l0.8-4.7h26.2l0.6-3.3l1.9-11.2L294,248.3L294,248.3L294,248.3z"/>
</g>
<g>
	<polygon class="st0" points="408.8,301.4 433.4,301.4 431.4,312.5 392.8,312.5 403.2,252.3 417.4,252.3 	"/>
	<path class="st3" d="M417.4,252.3l-8.5,49.1h24.5l-1.9,11.2h-38.7l10.4-60.2L417.4,252.3 M422.1,248.3h-22.3l-0.6,3.3l-10.4,60.2
		l-0.8,4.7h46.8l0.6-3.3l1.9-11.2l0.8-4.7h-24.5l7.7-44.4L422.1,248.3L422.1,248.3L422.1,248.3z"/>
</g>
<g>
	<polygon class="st0" points="408.8,301.4 433.4,301.4 431.4,312.5 392.8,312.5 403.2,252.3 417.4,252.3 	"/>
	<path class="st3" d="M417.4,252.3l-8.5,49.1h24.5l-1.9,11.2h-38.7l10.4-60.2L417.4,252.3 M422.1,248.3h-22.3l-0.6,3.3l-10.4,60.2
		l-0.8,4.7h46.8l0.6-3.3l1.9-11.2l0.8-4.7h-24.5l7.7-44.4L422.1,248.3L422.1,248.3L422.1,248.3z"/>
</g>
<g>
	<path class="st0" d="M459.9,290.1h12.5l-2.6-20.8L459.9,290.1z M473.9,301.2h-19.2l-5.3,11.3h-15.6l31.9-60.2h13.3l11.1,60.2h-14.7
		L473.9,301.2L473.9,301.2z"/>
	<path class="st3" d="M478.9,252.3l11.1,60.2h-14.7l-1.5-11.3h-19.2l-5.3,11.3h-15.6l31.9-60.2H478.9 M459.9,290.1h12.5l-2.6-20.8
		L459.9,290.1 M482.2,248.3h-19.1l-1.1,2.1l-31.9,60.2l-3.1,5.9h24.8l1.1-2.3l4.2-9h13.2l1,7.8l0.5,3.5h23l-0.9-4.7l-11.1-60.2
		L482.2,248.3L482.2,248.3L482.2,248.3z M466.2,286.1l1.3-2.7l0.4,2.7H466.2z"/>
</g>
<g>
	<path class="st0" d="M459.9,290.1h12.5l-2.6-20.8L459.9,290.1z M473.9,301.2h-19.2l-5.3,11.3h-15.6l31.9-60.2h13.3l11.1,60.2h-14.7
		L473.9,301.2L473.9,301.2z"/>
	<path class="st3" d="M478.9,252.3l11.1,60.2h-14.7l-1.5-11.3h-19.2l-5.3,11.3h-15.6l31.9-60.2H478.9 M459.9,290.1h12.5l-2.6-20.8
		L459.9,290.1 M482.2,248.3h-19.1l-1.1,2.1l-31.9,60.2l-3.1,5.9h24.8l1.1-2.3l4.2-9h13.2l1,7.8l0.5,3.5h23l-0.9-4.7l-11.1-60.2
		L482.2,248.3L482.2,248.3L482.2,248.3z M466.2,286.1l1.3-2.7l0.4,2.7H466.2z"/>
</g>
<g>
	<polygon class="st0" points="543.7,312.5 530,312.5 515.6,274.5 509,312.5 494.9,312.5 505.3,252.3 519.1,252.3 533.5,290.3 
		540,252.3 554.2,252.3 	"/>
	<path class="st3" d="M554.2,252.3l-10.5,60.2H530l-14.4-38l-6.6,38h-14.1l10.4-60.2h13.8l14.3,38l6.6-38H554.2 M558.9,248.3h-22.3
		l-0.6,3.3l-4.1,23.6l-9.2-24.3l-1-2.6h-20l-0.6,3.3l-10.4,60.2l-0.8,4.7h22.3l0.6-3.3l4.1-23.6l9.2,24.4l1,2.6h19.8l0.6-3.3
		l10.5-60.2L558.9,248.3L558.9,248.3L558.9,248.3z"/>
</g>
<g>
	<polygon class="st0" points="543.7,312.5 530,312.5 515.6,274.5 509,312.5 494.9,312.5 505.3,252.3 519.1,252.3 533.5,290.3 
		540,252.3 554.2,252.3 	"/>
	<path class="st3" d="M554.2,252.3l-10.5,60.2H530l-14.4-38l-6.6,38h-14.1l10.4-60.2h13.8l14.3,38l6.6-38H554.2 M558.9,248.3h-22.3
		l-0.6,3.3l-4.1,23.6l-9.2-24.3l-1-2.6h-20l-0.6,3.3l-10.4,60.2l-0.8,4.7h22.3l0.6-3.3l4.1-23.6l9.2,24.4l1,2.6h19.8l0.6-3.3
		l10.5-60.2L558.9,248.3L558.9,248.3L558.9,248.3z"/>
</g>
<polygon class="st0" points="1.4,228.6 1.4,216.5 220.1,216.5 210.1,229.4 "/>
<path class="st3" d="M2.7,227.2v-9.4h214.6l-7.9,10.2L2.7,227.2L2.7,227.2z M217.3,215.1H0V230h2.7l206.7,0.8h1.4l0.8-1.1l7.9-10.2
	l3.4-4.4L217.3,215.1L217.3,215.1z"/>
<polygon class="st0" points="306.4,229.2 317.9,216.7 556.7,217.4 556.7,229.2 "/>
<path class="st3" d="M317.3,215.3l-0.8,0.9l-9,9.8l-4.2,4.6H558v-14.5h-2.7l-236.8-0.8L317.3,215.3L317.3,215.3z M318.5,218
	l236.8,0.8v9.1H309.5L318.5,218L318.5,218z"/>
<g>
	<g>
		<path class="st0" d="M167.4,296.2c0.6-3.1-1.1-5.5-5.1-7.2l-6.8-2.8c-9.5-4.3-14-10.1-13.6-17.5c0.2-3.4,1.4-6.4,3.5-9
			c2.1-2.6,5.1-4.7,8.8-6.1s7.9-2.2,12.3-2.1c6,0.1,10.8,1.9,14.4,5.2c3.6,3.4,5.4,7.9,5.4,13.5h-14.1c0.1-2.3-0.4-4.2-1.5-5.6
			c-1.1-1.4-2.8-2.1-5.2-2.2c-2.4,0-4.5,0.5-6.3,1.6c-1.8,1.2-2.9,2.7-3.2,4.7c-0.5,2.8,1.5,5,6.1,6.8s8,3.3,10.1,4.5
			c6.6,3.9,9.7,9.3,9.3,16c-0.2,3.5-1.3,6.5-3.4,9.1c-2,2.6-4.8,4.6-8.4,6.1s-7.6,2.1-12,2.1c-3.2-0.1-6.3-0.6-9.1-1.5
			s-5.2-2.4-7.2-4.2c-4-3.7-6-8.6-5.8-14.7l14.2,0c-0.2,3.1,0.4,5.4,1.8,7c1.4,1.6,3.6,2.4,6.8,2.4c2.4,0,4.4-0.5,5.9-1.6
			C166.1,299.7,167,298.1,167.4,296.2"/>
		<path class="st3" d="M158.3,315.4c-0.2,0-0.3,0-0.5,0c-3.5-0.1-6.7-0.6-9.7-1.6c-3-1.1-5.7-2.6-7.9-4.6c-4.4-4.1-6.6-9.6-6.4-16.2
			l0.1-2l18.2,0l-0.1,2.1c-0.1,2.5,0.3,4.4,1.3,5.6c0.9,1.1,2.7,1.7,5.3,1.7c1.9,0,3.6-0.4,4.8-1.3c1.1-0.8,1.8-1.9,2.1-3.2v0
			c0.2-0.9,0.6-3.1-3.9-5l-6.8-2.8c-10.4-4.6-15.3-11.2-14.8-19.4c0.2-3.8,1.5-7.2,3.9-10.1c2.3-2.9,5.6-5.2,9.6-6.8
			c4-1.6,8.4-2.3,13-2.2c6.4,0.1,11.7,2.1,15.7,5.8c4,3.8,6.1,8.8,6,15l0,2h-18.1l0.1-2.1c0.1-1.8-0.3-3.3-1.1-4.3
			c-0.7-0.9-1.9-1.4-3.7-1.4c-2,0-3.7,0.4-5.2,1.3c-1.4,0.9-2.1,1.9-2.3,3.3c-0.3,1.7,1.3,3.2,4.9,4.6c4.8,1.8,8.2,3.4,10.4,4.7
			c7.2,4.3,10.7,10.3,10.2,17.8c-0.2,3.9-1.5,7.3-3.8,10.2c-2.2,2.9-5.3,5.2-9.2,6.7C166.9,314.6,162.7,315.4,158.3,315.4
			L158.3,315.4z M137.8,294.9c0.3,4.6,1.9,8.3,5.1,11.2c1.8,1.6,3.9,2.9,6.4,3.8c2.6,0.9,5.4,1.4,8.4,1.4c4.1,0,7.9-0.6,11.2-1.9
			c3.2-1.3,5.8-3.1,7.5-5.4c1.8-2.3,2.7-5,2.9-8c0.4-5.9-2.4-10.6-8.3-14.1c-2-1.2-5.3-2.7-9.8-4.4c-7-2.7-7.9-6.4-7.4-9
			c0.4-2.5,1.8-4.5,4.1-6c2.2-1.4,4.6-2,7.4-2c3.1,0.1,5.3,1.1,6.8,3c1,1.3,1.6,2.9,1.8,4.8h10.1c-0.3-4.2-1.9-7.5-4.6-10.1
			c-3.3-3.1-7.6-4.6-13.1-4.7c-4.1-0.1-8,0.6-11.5,2c-3.4,1.3-6.1,3.2-8,5.5c-1.9,2.3-2.9,4.9-3,7.9c-0.4,6.5,3.6,11.6,12.4,15.5
			l6.7,2.8c6.2,2.7,6.8,6.6,6.2,9.5c-0.5,2.5-1.7,4.4-3.8,5.8c-1.9,1.3-4.3,2-7.1,2c-3.8,0-6.6-1-8.4-3.1c-1.4-1.6-2.1-3.7-2.2-6.3
			L137.8,294.9L137.8,294.9z"/>
	</g>
	<g>
		<path class="st0" d="M167.4,296.2c0.6-3.1-1.1-5.5-5.1-7.2l-6.8-2.8c-9.5-4.3-14-10.1-13.6-17.5c0.2-3.4,1.4-6.4,3.5-9
			c2.1-2.6,5.1-4.7,8.8-6.1s7.9-2.2,12.3-2.1c6,0.1,10.8,1.9,14.4,5.2c3.6,3.4,5.4,7.9,5.4,13.5h-14.1c0.1-2.3-0.4-4.2-1.5-5.6
			c-1.1-1.4-2.8-2.1-5.2-2.2c-2.4,0-4.5,0.5-6.3,1.6c-1.8,1.2-2.9,2.7-3.2,4.7c-0.5,2.8,1.5,5,6.1,6.8s8,3.3,10.1,4.5
			c6.6,3.9,9.7,9.3,9.3,16c-0.2,3.5-1.3,6.5-3.4,9.1c-2,2.6-4.8,4.6-8.4,6.1s-7.6,2.1-12,2.1c-3.2-0.1-6.3-0.6-9.1-1.5
			s-5.2-2.4-7.2-4.2c-4-3.7-6-8.6-5.8-14.7l14.2,0c-0.2,3.1,0.4,5.4,1.8,7c1.4,1.6,3.6,2.4,6.8,2.4c2.4,0,4.4-0.5,5.9-1.6
			C166.1,299.7,167,298.1,167.4,296.2L167.4,296.2z"/>
		<path class="st3" d="M166.1,251.4c0.2,0,0.3,0,0.5,0c6,0.1,10.8,1.9,14.4,5.2c3.6,3.4,5.4,7.9,5.4,13.5h-14.1
			c0.1-2.3-0.4-4.2-1.5-5.6c-1.1-1.4-2.8-2.1-5.2-2.2c-0.1,0-0.2,0-0.3,0c-2.2,0-4.2,0.5-6,1.7c-1.8,1.2-2.9,2.7-3.2,4.7
			c-0.5,2.8,1.5,5,6.1,6.8s8,3.3,10.1,4.5c6.6,3.9,9.7,9.3,9.3,16c-0.2,3.5-1.3,6.5-3.4,9.1c-2,2.6-4.8,4.6-8.4,6.1
			c-3.4,1.4-7.3,2.1-11.5,2.1c-0.2,0-0.3,0-0.5,0c-3.2-0.1-6.3-0.6-9.1-1.5s-5.2-2.4-7.2-4.2c-4-3.7-6-8.6-5.8-14.7l14.2,0
			c-0.2,3.1,0.4,5.4,1.8,7c1.4,1.6,3.6,2.4,6.8,2.4c2.4,0,4.4-0.5,5.9-1.6s2.6-2.6,2.9-4.5c0.6-3.1-1.1-5.5-5.1-7.2l-6.8-2.8
			c-9.5-4.3-14-10.1-13.6-17.5c0.2-3.4,1.4-6.4,3.5-9c2.1-2.6,5.1-4.7,8.8-6.1C157.9,252.2,161.9,251.5,166.1,251.4 M166.1,247.5
			L166.1,247.5c-4.7,0-9.2,0.8-13.2,2.4c-4.4,1.7-7.9,4.2-10.5,7.4c-2.6,3.3-4.1,7.1-4.4,11.3c-0.4,6,1.8,14.3,14.2,20.5H150
			l-14.2,0h-3.9l-0.1,3.9c-0.2,7.2,2.2,13.2,7.1,17.7c2.4,2.2,5.2,3.9,8.6,5.1c3.2,1.1,6.6,1.7,10.3,1.8c0.2,0,0.4,0,0.6,0
			c4.7,0,9.1-0.8,13-2.4c4.2-1.7,7.6-4.2,10.1-7.4c2.5-3.3,3.9-7.1,4.2-11.3c0.5-8.2-3.4-15-11.2-19.6c-1.3-0.8-2.9-1.6-4.9-2.5
			h20.9l0-4c0.1-6.8-2.2-12.4-6.6-16.5c-4.4-4-10.1-6.1-17-6.3C166.5,247.5,166.3,247.5,166.1,247.5L166.1,247.5L166.1,247.5z
			 M160,269.6C160,269.6,160,269.6,160,269.6l0-0.1l0,0c0.1-0.6,0.4-1.3,1.4-2c1.1-0.7,2.4-1,3.8-1h0.2c0.5,0,1.8,0.1,2.1,0.6
			c0.5,0.6,0.7,1.6,0.6,3l-0.1,3.6c-1.4-0.6-2.9-1.2-4.5-1.8C160.5,270.7,160,269.7,160,269.6L160,269.6L160,269.6z M158.6,298.4
			c-1.9,0-3.2-0.4-3.8-1c-0.6-0.8-0.9-2.2-0.8-4.2l0.2-3.3l6.7,2.8c3,1.3,2.8,2.3,2.7,2.8c-0.2,0.9-0.6,1.5-1.3,2
			C161.3,298.1,160.1,298.4,158.6,298.4L158.6,298.4L158.6,298.4z"/>
	</g>
	<g>
		<path class="st0" d="M304.6,280l8.3,0.1c2.3,0,4.2-0.5,5.9-1.7c1.7-1.1,2.9-2.6,3.6-4.5s0.9-3.8,0.6-5.6c-0.5-3.1-2.5-4.7-5.9-4.9
			l-9.6,0L304.6,280L304.6,280z M310.6,291.2h-7.9l-3.7,21.3h-14.1l10.4-60.2l21.3,0c6.8,0,12.1,1.6,15.7,4.8s5.3,7.5,4.9,13
			c-0.3,4.4-1.6,8-3.8,10.8c-2.2,2.9-5.3,5.1-9.3,6.8l8.1,24.1v0.7h-15.1L310.6,291.2L310.6,291.2z"/>
		<path class="st3" d="M295.3,252.3l21.3,0c6.8,0,12.1,1.6,15.7,4.8c3.7,3.2,5.3,7.5,4.9,13c-0.3,4.4-1.6,8-3.8,10.8
			c-2.2,2.9-5.3,5.1-9.3,6.8l8.1,24.1v0.7h-15.1l-6.6-21.3h-7.9l-3.7,21.3h-14.1L295.3,252.3 M312.9,280.1c2.3,0,4.2-0.5,5.9-1.7
			c1.7-1.1,2.9-2.6,3.6-4.5s0.9-3.8,0.6-5.6c-0.5-3.1-2.5-4.7-5.9-4.9l-9.6,0l-2.9,16.6L312.9,280.1 M291.9,248.3l-0.6,3.3
			l-10.4,60.2l-0.8,4.7h22.3l0.6-3.3l3.1-18h1.5l5.7,18.5l0.9,2.8h22v-5.4l-0.2-0.6l-7-20.8c3-1.7,5.6-3.8,7.5-6.4
			c2.7-3.5,4.2-7.8,4.6-13c0.5-6.8-1.6-12.3-6.3-16.3c-4.4-3.8-10.6-5.7-18.4-5.7l-21.2,0L291.9,248.3L291.9,248.3z M309.3,276.1
			l1.5-8.6l6.1,0c1.8,0.1,1.9,0.7,2,1.6c0.2,1.1,0,2.2-0.4,3.5c-0.4,1.1-1.1,2-2,2.6c-1,0.7-2.2,1-3.7,1L309.3,276.1L309.3,276.1
			L309.3,276.1z"/>
	</g>
	<g>
		<path class="st0" d="M304.6,280l8.3,0.1c2.3,0,4.2-0.5,5.9-1.7c1.7-1.1,2.9-2.6,3.6-4.5s0.9-3.8,0.6-5.6c-0.5-3.1-2.5-4.7-5.9-4.9
			l-9.6,0L304.6,280L304.6,280z M310.6,291.2h-7.9l-3.7,21.3h-14.1l10.4-60.2l21.3,0c6.8,0,12.1,1.6,15.7,4.8s5.3,7.5,4.9,13
			c-0.3,4.4-1.6,8-3.8,10.8c-2.2,2.9-5.3,5.1-9.3,6.8l8.1,24.1v0.7h-15.1L310.6,291.2L310.6,291.2z"/>
		<path class="st3" d="M295.3,252.3l21.3,0c6.8,0,12.1,1.6,15.7,4.8c3.7,3.2,5.3,7.5,4.9,13c-0.3,4.4-1.6,8-3.8,10.8
			c-2.2,2.9-5.3,5.1-9.3,6.8l8.1,24.1v0.7h-15.1l-6.6-21.3h-7.9l-3.7,21.3h-14.1L295.3,252.3 M312.9,280.1c2.3,0,4.2-0.5,5.9-1.7
			c1.7-1.1,2.9-2.6,3.6-4.5s0.9-3.8,0.6-5.6c-0.5-3.1-2.5-4.7-5.9-4.9l-9.6,0l-2.9,16.6L312.9,280.1 M291.9,248.3l-0.6,3.3
			l-10.4,60.2l-0.8,4.7h22.3l0.6-3.3l3.1-18h1.5l5.7,18.5l0.9,2.8h22v-5.4l-0.2-0.6l-7-20.8c3-1.7,5.6-3.8,7.5-6.4
			c2.7-3.5,4.2-7.8,4.6-13c0.5-6.8-1.6-12.3-6.3-16.3c-4.4-3.8-10.6-5.7-18.4-5.7l-21.2,0L291.9,248.3L291.9,248.3z M309.3,276.1
			l1.5-8.6l6.1,0c1.8,0.1,1.9,0.7,2,1.6c0.2,1.1,0,2.2-0.4,3.5c-0.4,1.1-1.1,2-2,2.6c-1,0.7-2.2,1-3.7,1L309.3,276.1L309.3,276.1
			L309.3,276.1z"/>
	</g>
	<g>
		<path class="st0" d="M358.5,280.9l8.5,0.1c3.6-0.1,6.3-1.2,8.2-3.5c1.9-2.2,2.7-5,2.3-8.3c-0.2-1.7-0.9-3-1.9-4
			c-1.1-1-2.5-1.5-4.2-1.6l-9.9,0L358.5,280.9L358.5,280.9z M356.6,292l-3.6,20.5h-14.1l10.4-60.2l21.6,0c6.7,0,12,1.9,15.8,5.6
			c3.9,3.7,5.5,8.5,5.1,14.5c-0.3,4-1.6,7.6-3.9,10.5c-2.3,3-5.2,5.2-9,6.8s-7.9,2.4-12.5,2.4L356.6,292L356.6,292z"/>
		<path class="st3" d="M349.3,252.3l21.6,0c6.7,0,12,1.9,15.8,5.6s5.5,8.5,5.1,14.5c-0.3,4-1.6,7.6-3.9,10.5c-2.3,3-5.2,5.2-9,6.8
			s-7.9,2.4-12.5,2.4l-9.9,0l-3.6,20.5h-14.1L349.3,252.3 M367,281c3.6-0.1,6.3-1.2,8.2-3.5c1.9-2.2,2.7-5,2.3-8.3
			c-0.2-1.7-0.9-3-1.9-4c-1.1-1-2.5-1.5-4.2-1.6l-9.9,0l-3,17.4L367,281 M345.9,248.3l-0.6,3.3l-10.4,60.2l-0.8,4.7h22.3l0.6-3.3
			l3-17.1l6.5,0c5.1,0,9.9-0.9,14-2.7c4.3-1.8,7.9-4.6,10.6-8.1c2.7-3.6,4.3-7.8,4.7-12.6c0.6-7.1-1.5-13.1-6.3-17.7
			c-4.6-4.4-10.9-6.7-18.6-6.7l-21.6,0H345.9L345.9,248.3z M363.2,276.9l1.6-9.4l6.4,0c1.1,0.1,1.5,0.5,1.6,0.6
			c0.2,0.2,0.5,0.6,0.7,1.6c0.2,2.2-0.2,3.8-1.4,5.2c-0.7,0.9-2,2-5.2,2.1L363.2,276.9L363.2,276.9L363.2,276.9z"/>
	</g>
	<g>
		<path class="st0" d="M358.5,280.9l8.5,0.1c3.6-0.1,6.3-1.2,8.2-3.5c1.9-2.2,2.7-5,2.3-8.3c-0.2-1.7-0.9-3-1.9-4
			c-1.1-1-2.5-1.5-4.2-1.6l-9.9,0L358.5,280.9L358.5,280.9z M356.6,292l-3.6,20.5h-14.1l10.4-60.2l21.6,0c6.7,0,12,1.9,15.8,5.6
			c3.9,3.7,5.5,8.5,5.1,14.5c-0.3,4-1.6,7.6-3.9,10.5c-2.3,3-5.2,5.2-9,6.8s-7.9,2.4-12.5,2.4L356.6,292L356.6,292z"/>
		<path class="st3" d="M349.3,252.3l21.6,0c6.7,0,12,1.9,15.8,5.6s5.5,8.5,5.1,14.5c-0.3,4-1.6,7.6-3.9,10.5c-2.3,3-5.2,5.2-9,6.8
			s-7.9,2.4-12.5,2.4l-9.9,0l-3.6,20.5h-14.1L349.3,252.3 M367,281c3.6-0.1,6.3-1.2,8.2-3.5c1.9-2.2,2.7-5,2.3-8.3
			c-0.2-1.7-0.9-3-1.9-4c-1.1-1-2.5-1.5-4.2-1.6l-9.9,0l-3,17.4L367,281 M345.9,248.3l-0.6,3.3l-10.4,60.2l-0.8,4.7h22.3l0.6-3.3
			l3-17.1l6.5,0c5.1,0,9.9-0.9,14-2.7c4.3-1.8,7.9-4.6,10.6-8.1c2.7-3.6,4.3-7.8,4.7-12.6c0.6-7.1-1.5-13.1-6.3-17.7
			c-4.6-4.4-10.9-6.7-18.6-6.7l-21.6,0H345.9L345.9,248.3z M363.2,276.9l1.6-9.4l6.4,0c1.1,0.1,1.5,0.5,1.6,0.6
			c0.2,0.2,0.5,0.6,0.7,1.6c0.2,2.2-0.2,3.8-1.4,5.2c-0.7,0.9-2,2-5.2,2.1L363.2,276.9L363.2,276.9L363.2,276.9z"/>
	</g>
</g>
</svg>
