<svg id="Laag_1" data-name="Laag 1" xmlns="http://www.w3.org/2000/svg" viewBox="0 0 723.35 315.95"><defs><style>.cls-1{fill:none;stroke:#b2395d;stroke-miterlimit:10;stroke-width:0.78px;}.cls-2{fill:#064d6f;}.cls-3{fill:#276380;}.cls-4{fill:#00999d;}</style></defs><path class="cls-1" d="M302.7,143.69" transform="translate(-16.65 -23.53)"/><polygon class="cls-2" points="322.42 0 322.3 0.31 247.6 186.74 213.37 0 126.59 0 0 315.95 88.26 315.95 157.83 133.85 196.05 315.95 283.9 315.94 353.66 133.85 409.19 0 322.42 0"/><polygon class="cls-3" points="417.87 47.31 364.78 186.82 391.88 315.95 467.03 315.43 417.87 47.31"/><polygon class="cls-4" points="723.35 0.26 634.69 0.26 558.12 83.46 529.33 0.26 440.66 0.26 493.68 153.48 473.15 175.78 487.88 256.12 517.9 223.5 549.88 315.95 638.55 315.95 582.34 153.48 723.35 0.26"/></svg>