<?xml version="1.0" encoding="UTF-8"?>
<svg id="Laag_1" data-name="Laag 1" xmlns="http://www.w3.org/2000/svg" viewBox="0 0 558.95 348.77">
  <defs>
    <style>
      .cls-1 {
        fill: #fff;
      }

      .cls-2 {
        fill: #e25d10;
      }

      .cls-3 {
        fill: none;
        stroke: #fff;
        stroke-miterlimit: 10;
        stroke-width: 2.76px;
      }

      .cls-4 {
        fill: #1d1d1b;
      }
    </style>
  </defs>
  <polygon class="cls-4" points="364.91 188.21 302.01 1.43 302.03 1.38 253.54 1.38 253.47 1.56 219.46 112.02 192.59 1.38 144.1 1.38 73.36 188.57 122.68 188.57 161.56 80.68 190.65 188.57 239.75 188.57 270.99 80.68 273.23 74.98 302.03 188.6 364.91 188.21"/>
  <polygon class="cls-3" points="364.91 188.21 302.01 1.43 302.03 1.38 253.54 1.38 253.47 1.56 219.46 112.02 192.59 1.38 144.1 1.38 73.36 188.57 122.68 188.57 161.56 80.68 190.65 188.57 239.75 188.57 270.99 80.68 273.23 74.98 302.03 188.6 364.91 188.21"/>
  <polygon class="cls-2" points="230.65 228 365.46 92.14 334.07 1.42 388.87 1.42 405.29 48.9 448.98 1.42 504.6 1.42 420.49 92.82 453.76 188.98 398.96 188.98 380.63 136 288.16 228 230.65 228"/>
  <path class="cls-1" d="M507.71,.06h-59.33l-.81,.88-41.74,45.35L390.48,1.9l-.64-1.84h-57.69l1.25,3.62,30.48,88.1L230.91,225.79l-4.62,4.65h60.22s1.13,0,1.13,0l.8-.79,91.61-91.16,17.3,50.02,.64,1.84h57.69l-1.25-3.62-32.38-93.58L503.5,4.64,507.71,.06Zm-6.22,2.73l-82.56,89.71,32.91,95.12h-51.91l-18.73-54.13-94.69,94.22h-53.66S367.02,92.5,367.02,92.5L335.98,2.79h51.91l16.85,48.72L449.58,2.79h51.91Z"/>
  <rect class="cls-4" x="1.36" y="335.55" width="553.93" height="10.91"/>
  <path class="cls-1" d="M2.73,337.1H555.29v8.75H2.73v-8.75Zm552.64-2.92H0v14.59H558.02v-14.59h-2.66Z"/>
  <g>
    <polygon class="cls-4" points="33.58 252.3 39.33 294.08 59.51 252.3 78.38 252.3 67.95 312.52 53.72 312.52 56.29 297.76 62.41 270.54 41.31 312.52 31.92 312.52 25.1 268.97 21.29 299.16 18.94 312.52 4.79 312.52 15.21 252.3 33.58 252.3"/>
    <path class="cls-1" d="M78.38,252.3l-10.42,60.23h-14.23l2.56-14.77,6.12-27.22-21.1,41.98h-9.39l-6.82-43.56-3.81,30.2-2.36,13.36H4.79l10.42-60.23h18.37l5.75,41.78,20.19-41.78h18.86m4.75-4h-26.12l-1.09,2.26-14.43,29.86-3.95-28.67-.48-3.45H11.84l-.57,3.32L.85,311.84l-.81,4.68H22.29l.58-3.31,2.36-13.36,.02-.1v-.1s.28-2.12,.28-2.12l2.44,15.6,.53,3.38h15.28l1.11-2.2,6.82-13.57-1.93,11.09-.81,4.68h22.35l.57-3.32,10.42-60.23,.81-4.68h0Z"/>
  </g>
  <g>
    <polygon class="cls-4" points="33.58 252.3 39.33 294.08 59.51 252.3 78.38 252.3 67.95 312.52 53.72 312.52 56.29 297.76 62.41 270.54 41.31 312.52 31.92 312.52 25.1 268.97 21.29 299.16 18.94 312.52 4.79 312.52 15.21 252.3 33.58 252.3"/>
    <path class="cls-1" d="M78.38,252.3l-10.42,60.23h-14.23l2.56-14.77,6.12-27.22-21.1,41.98h-9.39l-6.82-43.56-3.81,30.2-2.36,13.36H4.79l10.42-60.23h18.37l5.75,41.78,20.19-41.78h18.86m4.75-4h-26.12l-1.09,2.26-14.43,29.86-3.95-28.67-.48-3.45H11.84l-.57,3.32L.85,311.84l-.81,4.68H22.29l.58-3.31,2.36-13.36,.02-.1v-.1s.28-2.12,.28-2.12l2.44,15.6,.53,3.38h15.28l1.11-2.2,6.82-13.57-1.93,11.09-.81,4.68h22.35l.57-3.32,10.42-60.23,.81-4.68h0Z"/>
  </g>
  <g>
    <path class="cls-4" d="M99.39,290.07h12.49l-2.65-20.77-9.84,20.77Zm13.94,11.17h-19.23l-5.34,11.29h-15.6l31.89-60.23h13.32l11.13,60.23h-14.73l-1.45-11.29Z"/>
    <path class="cls-1" d="M118.38,252.3l11.13,60.23h-14.73l-1.45-11.29h-19.23l-5.34,11.29h-15.6l31.89-60.23h13.32m-18.99,37.77h12.49l-2.65-20.77-9.84,20.77m22.31-41.77h-19.06l-1.13,2.13-31.89,60.23-3.11,5.87h24.77l1.08-2.29,4.25-9h13.18l1,7.8,.45,3.49h23.05l-.87-4.73-11.13-60.23-.6-3.27h0Zm-15.99,37.77l1.28-2.7,.34,2.7h-1.63Z"/>
  </g>
  <g>
    <path class="cls-4" d="M99.39,290.07h12.49l-2.65-20.77-9.84,20.77Zm13.94,11.17h-19.23l-5.34,11.29h-15.6l31.89-60.23h13.32l11.13,60.23h-14.73l-1.45-11.29Z"/>
    <path class="cls-1" d="M118.38,252.3l11.13,60.23h-14.73l-1.45-11.29h-19.23l-5.34,11.29h-15.6l31.89-60.23h13.32m-18.99,37.77h12.49l-2.65-20.77-9.84,20.77m22.31-41.77h-19.06l-1.13,2.13-31.89,60.23-3.11,5.87h24.77l1.08-2.29,4.25-9h13.18l1,7.8,.45,3.49h23.05l-.87-4.73-11.13-60.23-.6-3.27h0Zm-15.99,37.77l1.28-2.7,.34,2.7h-1.63Z"/>
  </g>
  <g>
    <polygon class="cls-4" points="240.65 263.51 223.11 263.51 214.63 312.52 200.44 312.52 208.96 263.51 191.72 263.51 193.7 252.3 242.59 252.3 240.65 263.51"/>
    <path class="cls-1" d="M242.59,252.3l-1.94,11.21h-17.54l-8.48,49.02h-14.19l8.52-49.02h-17.25l1.99-11.21h48.89m4.75-4h-57l-.58,3.3-1.99,11.21-.83,4.7h17.26l-7.71,44.33-.81,4.69h22.31l.57-3.32,7.91-45.7h17.54l.57-3.32,1.94-11.21,.81-4.68h0Z"/>
  </g>
  <g>
    <polygon class="cls-4" points="240.65 263.51 223.11 263.51 214.63 312.52 200.44 312.52 208.96 263.51 191.72 263.51 193.7 252.3 242.59 252.3 240.65 263.51"/>
    <path class="cls-1" d="M242.59,252.3l-1.94,11.21h-17.54l-8.48,49.02h-14.19l8.52-49.02h-17.25l1.99-11.21h48.89m4.75-4h-57l-.58,3.3-1.99,11.21-.83,4.7h17.26l-7.71,44.33-.81,4.69h22.31l.57-3.32,7.91-45.7h17.54l.57-3.32,1.94-11.21,.81-4.68h0Z"/>
  </g>
  <g>
    <polygon class="cls-4" points="279.16 286.96 257.03 286.96 254.51 301.36 280.69 301.36 278.75 312.52 238.42 312.52 248.84 252.3 289.25 252.3 287.31 263.51 261.08 263.51 258.85 276.21 281.02 276.21 279.16 286.96"/>
    <path class="cls-1" d="M289.25,252.3l-1.94,11.21h-26.23l-2.23,12.7h22.17l-1.86,10.75h-22.13l-2.52,14.4h26.19l-1.94,11.17h-40.33l10.42-60.23h40.41m4.75-4h-48.53l-.57,3.32-10.42,60.23-.81,4.68h48.45l.58-3.31,1.94-11.17,.82-4.69h-26.18l1.12-6.4h22.14l.57-3.32,1.86-10.75,.81-4.68h-22.16l.83-4.7h26.23l.57-3.32,1.94-11.21,.81-4.68h0Z"/>
  </g>
  <g>
    <polygon class="cls-4" points="279.16 286.96 257.03 286.96 254.51 301.36 280.69 301.36 278.75 312.52 238.42 312.52 248.84 252.3 289.25 252.3 287.31 263.51 261.08 263.51 258.85 276.21 281.02 276.21 279.16 286.96"/>
    <path class="cls-1" d="M289.25,252.3l-1.94,11.21h-26.23l-2.23,12.7h22.17l-1.86,10.75h-22.13l-2.52,14.4h26.19l-1.94,11.17h-40.33l10.42-60.23h40.41m4.75-4h-48.53l-.57,3.32-10.42,60.23-.81,4.68h48.45l.58-3.31,1.94-11.17,.82-4.69h-26.18l1.12-6.4h22.14l.57-3.32,1.86-10.75,.81-4.68h-22.16l.83-4.7h26.23l.57-3.32,1.94-11.21,.81-4.68h0Z"/>
  </g>
  <g>
    <polygon class="cls-4" points="408.84 301.36 433.37 301.36 431.43 312.53 392.75 312.53 403.17 252.3 417.36 252.3 408.84 301.36"/>
    <path class="cls-1" d="M417.36,252.3l-8.52,49.06h24.53l-1.94,11.17h-38.68l10.42-60.23h14.19m4.75-4h-22.31l-.57,3.32-10.42,60.23-.81,4.68h46.79l.58-3.31,1.94-11.17,.81-4.69h-24.53l7.71-44.37,.81-4.68h0Z"/>
  </g>
  <g>
    <polygon class="cls-4" points="408.84 301.36 433.37 301.36 431.43 312.53 392.75 312.53 403.17 252.3 417.36 252.3 408.84 301.36"/>
    <path class="cls-1" d="M417.36,252.3l-8.52,49.06h24.53l-1.94,11.17h-38.68l10.42-60.23h14.19m4.75-4h-22.31l-.57,3.32-10.42,60.23-.81,4.68h46.79l.58-3.31,1.94-11.17,.81-4.69h-24.53l7.71-44.37,.81-4.68h0Z"/>
  </g>
  <g>
    <path class="cls-4" d="M459.93,290.07h12.49l-2.65-20.77-9.84,20.77Zm13.94,11.17h-19.23l-5.34,11.29h-15.6l31.89-60.23h13.32l11.13,60.23h-14.73l-1.45-11.29Z"/>
    <path class="cls-1" d="M478.91,252.3l11.13,60.23h-14.73l-1.45-11.29h-19.23l-5.34,11.29h-15.6l31.89-60.23h13.32m-18.99,37.77h12.49l-2.65-20.77-9.84,20.77m22.31-41.77h-19.06l-1.13,2.13-31.89,60.23-3.11,5.87h24.77l1.08-2.29,4.25-9h13.18l1,7.8,.45,3.49h23.05l-.87-4.73-11.13-60.23-.6-3.27h0Zm-15.99,37.77l1.28-2.71,.35,2.71h-1.63Z"/>
  </g>
  <g>
    <path class="cls-4" d="M459.93,290.07h12.49l-2.65-20.77-9.84,20.77Zm13.94,11.17h-19.23l-5.34,11.29h-15.6l31.89-60.23h13.32l11.13,60.23h-14.73l-1.45-11.29Z"/>
    <path class="cls-1" d="M478.91,252.3l11.13,60.23h-14.73l-1.45-11.29h-19.23l-5.34,11.29h-15.6l31.89-60.23h13.32m-18.99,37.77h12.49l-2.65-20.77-9.84,20.77m22.31-41.77h-19.06l-1.13,2.13-31.89,60.23-3.11,5.87h24.77l1.08-2.29,4.25-9h13.18l1,7.8,.45,3.49h23.05l-.87-4.73-11.13-60.23-.6-3.27h0Zm-15.99,37.77l1.28-2.71,.35,2.71h-1.63Z"/>
  </g>
  <g>
    <polygon class="cls-4" points="543.73 312.53 530.04 312.53 515.64 274.51 509.03 312.53 494.88 312.53 505.3 252.3 519.12 252.3 533.47 290.31 540.05 252.3 554.2 252.3 543.73 312.53"/>
    <path class="cls-1" d="M554.2,252.3l-10.47,60.23h-13.69l-14.4-38.02-6.62,38.02h-14.15l10.42-60.23h13.82l14.35,38.01,6.58-38.01h14.15m4.75-4h-22.27l-.57,3.32-4.08,23.56-9.17-24.29-.98-2.59h-19.95l-.57,3.32-10.42,60.23-.81,4.68h22.26l.58-3.31,4.11-23.62,9.22,24.35,.98,2.58h19.82l.58-3.32,10.47-60.23,.81-4.68h0Z"/>
  </g>
  <g>
    <polygon class="cls-4" points="543.73 312.53 530.04 312.53 515.64 274.51 509.03 312.53 494.88 312.53 505.3 252.3 519.12 252.3 533.47 290.31 540.05 252.3 554.2 252.3 543.73 312.53"/>
    <path class="cls-1" d="M554.2,252.3l-10.47,60.23h-13.69l-14.4-38.02-6.62,38.02h-14.15l10.42-60.23h13.82l14.35,38.01,6.58-38.01h14.15m4.75-4h-22.27l-.57,3.32-4.08,23.56-9.17-24.29-.98-2.59h-19.95l-.57,3.32-10.42,60.23-.81,4.68h22.26l.58-3.31,4.11-23.62,9.22,24.35,.98,2.58h19.82l.58-3.32,10.47-60.23,.81-4.68h0Z"/>
  </g>
  <polygon class="cls-4" points="1.36 228.6 1.36 216.46 220.08 216.46 210.07 229.42 1.36 228.6"/>
  <path class="cls-1" d="M2.73,227.24v-9.42H217.3l-7.89,10.23-206.68-.81Zm214.57-12.15H0v14.87H2.72s206.68,.82,206.68,.82h1.35s.83-1.06,.83-1.06l7.89-10.23,3.39-4.4h-5.55Z"/>
  <polygon class="cls-4" points="306.38 229.21 317.93 216.66 556.66 217.44 556.66 229.21 306.38 229.21"/>
  <path class="cls-1" d="M317.34,215.29l-.81,.88-9.04,9.82-4.21,4.58h254.76v-14.49h-2.72s-236.76-.78-236.76-.78h-1.2Zm1.19,2.73l236.76,.78v9.05h-245.81l9.04-9.82Z"/>
  <g>
    <g>
      <path class="cls-4" d="M167.44,296.21c.61-3.11-1.08-5.53-5.05-7.24l-6.79-2.81c-9.51-4.27-14.04-10.09-13.57-17.45,.19-3.37,1.35-6.36,3.47-9,2.12-2.63,5.06-4.68,8.81-6.14,3.75-1.46,7.85-2.17,12.29-2.11,5.96,.11,10.75,1.85,14.37,5.21,3.63,3.37,5.41,7.87,5.36,13.53h-14.06c.08-2.32-.41-4.17-1.47-5.56-1.06-1.39-2.81-2.12-5.23-2.17-2.37-.05-4.47,.5-6.29,1.65-1.82,1.16-2.9,2.72-3.23,4.68-.53,2.76,1.52,5.02,6.14,6.78,4.62,1.76,7.98,3.28,10.07,4.55,6.59,3.94,9.68,9.26,9.26,15.96-.22,3.48-1.34,6.52-3.35,9.14-2.01,2.62-4.81,4.65-8.38,6.08-3.57,1.43-7.58,2.12-12.02,2.07-3.25-.06-6.27-.56-9.06-1.53-2.79-.97-5.17-2.37-7.16-4.22-4.03-3.72-5.96-8.62-5.79-14.68l14.19,.04c-.17,3.09,.43,5.43,1.78,7.01,1.35,1.58,3.63,2.38,6.83,2.38,2.37,0,4.35-.54,5.93-1.63,1.59-1.09,2.56-2.6,2.92-4.53"/>
      <path class="cls-1" d="M158.29,315.37c-.17,0-.34,0-.52,0-3.46-.06-6.72-.61-9.69-1.64-3.04-1.06-5.69-2.62-7.86-4.65-4.44-4.11-6.61-9.56-6.43-16.2l.05-1.95,18.24,.05-.11,2.1c-.14,2.55,.3,4.43,1.3,5.61,.95,1.11,2.73,1.67,5.3,1.67,1.95,0,3.56-.43,4.8-1.28,1.14-.78,1.82-1.85,2.08-3.25v-.02c.18-.92,.61-3.09-3.87-5.02l-6.76-2.8c-10.36-4.65-15.32-11.18-14.8-19.43,.21-3.76,1.53-7.17,3.91-10.12,2.34-2.9,5.58-5.17,9.64-6.75,3.97-1.55,8.36-2.3,13.04-2.25,6.45,.12,11.73,2.05,15.71,5.75,4.04,3.75,6.06,8.8,6,15.01l-.02,1.98h-18.12l.07-2.07c.07-1.83-.29-3.27-1.06-4.28-.68-.89-1.89-1.35-3.69-1.39-1.98-.05-3.68,.39-5.17,1.34-1.35,.86-2.09,1.91-2.32,3.32-.32,1.7,1.32,3.22,4.88,4.58,4.77,1.82,8.16,3.36,10.39,4.71,7.24,4.33,10.69,10.32,10.23,17.8-.24,3.86-1.51,7.31-3.76,10.24-2.23,2.9-5.33,5.16-9.22,6.72-3.66,1.47-7.79,2.21-12.27,2.21Zm-20.47-20.43c.26,4.59,1.95,8.27,5.12,11.21,1.77,1.65,3.94,2.93,6.45,3.8,2.57,.89,5.41,1.37,8.44,1.42,4.15,.05,7.93-.6,11.24-1.92,3.22-1.29,5.75-3.12,7.54-5.44,1.78-2.32,2.74-4.96,2.94-8.05,.37-5.94-2.35-10.56-8.3-14.12-2-1.21-5.28-2.69-9.76-4.4-7.02-2.68-7.9-6.39-7.39-9.03,.42-2.49,1.81-4.52,4.11-5.99,2.16-1.37,4.64-2.02,7.41-1.97,3.05,.07,5.33,1.07,6.78,2.96,.99,1.3,1.6,2.9,1.81,4.78h10.07c-.33-4.16-1.86-7.47-4.65-10.06-3.28-3.05-7.55-4.58-13.05-4.68-4.15-.05-8.03,.61-11.52,1.97-3.4,1.32-6.09,3.19-7.98,5.53-1.87,2.32-2.87,4.89-3.03,7.85-.42,6.51,3.64,11.58,12.39,15.52l6.73,2.79c6.17,2.66,6.8,6.61,6.24,9.46-.46,2.46-1.72,4.41-3.75,5.8-1.92,1.32-4.29,1.99-7.07,1.99-3.8,0-6.61-1.04-8.35-3.08-1.35-1.58-2.1-3.7-2.25-6.32l-10.17-.03Z"/>
    </g>
    <g>
      <path class="cls-4" d="M167.44,296.21c.61-3.11-1.08-5.53-5.05-7.24l-6.79-2.81c-9.51-4.27-14.04-10.09-13.57-17.45,.19-3.37,1.35-6.36,3.47-9,2.12-2.63,5.06-4.68,8.81-6.14,3.75-1.46,7.85-2.17,12.29-2.11,5.96,.11,10.75,1.85,14.37,5.21,3.63,3.37,5.41,7.87,5.36,13.53h-14.06c.08-2.32-.41-4.17-1.47-5.56-1.06-1.39-2.81-2.12-5.23-2.17-2.37-.05-4.47,.5-6.29,1.65-1.82,1.16-2.9,2.72-3.23,4.68-.53,2.76,1.52,5.02,6.14,6.78,4.62,1.76,7.98,3.28,10.07,4.55,6.59,3.94,9.68,9.26,9.26,15.96-.22,3.48-1.34,6.52-3.35,9.14-2.01,2.62-4.81,4.65-8.38,6.08-3.57,1.43-7.58,2.12-12.02,2.07-3.25-.06-6.27-.56-9.06-1.53-2.79-.97-5.17-2.37-7.16-4.22-4.03-3.72-5.96-8.62-5.79-14.68l14.19,.04c-.17,3.09,.43,5.43,1.78,7.01,1.35,1.58,3.63,2.38,6.83,2.38,2.37,0,4.35-.54,5.93-1.63,1.59-1.09,2.56-2.6,2.92-4.53Z"/>
      <path class="cls-1" d="M166.12,251.45c.16,0,.33,0,.49,0,5.96,.11,10.75,1.85,14.37,5.21,3.63,3.37,5.41,7.87,5.36,13.53h-14.06c.08-2.32-.41-4.17-1.47-5.56-1.06-1.39-2.81-2.12-5.23-2.17-.1,0-.21,0-.31,0-2.25,0-4.24,.55-5.98,1.66-1.82,1.16-2.9,2.72-3.23,4.68-.52,2.76,1.52,5.02,6.14,6.78,4.62,1.76,7.98,3.28,10.07,4.55,6.59,3.94,9.68,9.26,9.27,15.96-.22,3.48-1.34,6.52-3.35,9.14-2.01,2.62-4.81,4.65-8.38,6.08-3.44,1.38-7.27,2.07-11.52,2.07-.17,0-.33,0-.5,0-3.25-.06-6.27-.56-9.06-1.53-2.79-.97-5.17-2.37-7.16-4.22-4.03-3.72-5.96-8.62-5.79-14.68l14.19,.04c-.17,3.09,.43,5.43,1.78,7.01,1.35,1.58,3.63,2.38,6.83,2.38,2.37,0,4.35-.54,5.94-1.63,1.59-1.09,2.56-2.6,2.92-4.53,.61-3.11-1.08-5.53-5.05-7.24l-6.79-2.81c-9.51-4.27-14.04-10.09-13.57-17.45,.19-3.37,1.35-6.36,3.47-9,2.12-2.63,5.06-4.68,8.81-6.14,3.61-1.41,7.54-2.11,11.79-2.11m0-4h0c-4.73,0-9.19,.8-13.25,2.39-4.39,1.71-7.91,4.18-10.47,7.36-2.65,3.29-4.12,7.09-4.35,11.28-.38,6,1.83,14.34,14.2,20.51h-2.25s-14.19-.05-14.19-.05h-3.9s-.11,3.89-.11,3.89c-.2,7.24,2.18,13.21,7.07,17.73,2.37,2.21,5.25,3.91,8.56,5.06,3.17,1.1,6.64,1.69,10.3,1.75,.2,0,.39,0,.57,0,4.73,0,9.11-.79,13.01-2.36,4.23-1.7,7.61-4.17,10.06-7.36,2.5-3.26,3.9-7.07,4.17-11.33,.5-8.17-3.37-14.96-11.2-19.65-1.27-.77-2.9-1.6-4.92-2.5h20.9l.04-3.96c.07-6.8-2.17-12.35-6.64-16.5-4.35-4.04-10.08-6.15-17.02-6.28-.2,0-.38,0-.56,0h0Zm-6.14,22.15s0-.03,.01-.07v-.04s.01-.04,.01-.04c.1-.58,.35-1.28,1.43-1.97,1.09-.69,2.35-1.03,3.83-1.03h.22c.51,.01,1.76,.1,2.14,.6,.48,.63,.7,1.64,.65,2.99l-.13,3.6c-1.35-.58-2.85-1.18-4.52-1.81-3.08-1.17-3.61-2.15-3.65-2.23h0Zm-1.4,28.77c-1.88,0-3.25-.35-3.78-.97-.64-.75-.93-2.24-.83-4.2l.18-3.31,6.68,2.77c2.97,1.29,2.78,2.26,2.68,2.79-.17,.92-.55,1.51-1.26,2-.91,.63-2.11,.93-3.67,.93h0Z"/>
    </g>
    <g>
      <path class="cls-4" d="M304.61,280.03l8.27,.08c2.26,0,4.23-.55,5.89-1.66,1.67-1.11,2.86-2.62,3.58-4.54,.72-1.92,.92-3.78,.62-5.58-.55-3.07-2.51-4.69-5.87-4.85l-9.6-.04-2.9,16.59Zm5.96,11.17h-7.86l-3.72,21.3h-14.15l10.42-60.23,21.26,.04c6.81,0,12.06,1.59,15.74,4.77,3.68,3.18,5.33,7.53,4.94,13.04-.3,4.35-1.56,7.96-3.76,10.81-2.21,2.85-5.3,5.1-9.27,6.75l8.11,24.11v.7h-15.1l-6.62-21.3Z"/>
      <path class="cls-1" d="M295.26,252.28l21.26,.04c6.81,0,12.06,1.59,15.74,4.77s5.33,7.53,4.94,13.04c-.3,4.35-1.56,7.96-3.76,10.81-2.21,2.85-5.29,5.1-9.27,6.75l8.11,24.11v.7h-15.1l-6.62-21.3h-7.86l-3.72,21.3h-14.15l10.42-60.23m17.62,27.84c2.26,0,4.23-.55,5.89-1.66,1.67-1.11,2.86-2.62,3.58-4.54,.72-1.92,.92-3.78,.62-5.58-.55-3.07-2.51-4.69-5.87-4.85l-9.6-.04-2.9,16.59,8.27,.08m-20.99-31.85l-.58,3.32-10.42,60.23-.81,4.68h22.26l.58-3.31,3.14-17.99h1.55l5.74,18.49,.87,2.81h22.04v-5.36l-.21-.62-6.99-20.78c3.05-1.71,5.57-3.84,7.52-6.36,2.69-3.48,4.23-7.84,4.59-12.98,.48-6.81-1.65-12.31-6.32-16.34-4.41-3.81-10.59-5.74-18.35-5.74l-21.25-.04h-3.37Zm17.47,27.8l1.5-8.62,6.12,.03c1.79,.1,1.89,.69,2.05,1.56,.18,1.06,.04,2.21-.43,3.47-.42,1.13-1.07,1.96-2.04,2.6-1,.67-2.2,.99-3.67,.99l-3.54-.03h0Z"/>
    </g>
    <g>
      <path class="cls-4" d="M304.61,280.03l8.27,.08c2.26,0,4.23-.55,5.89-1.66,1.67-1.11,2.86-2.62,3.58-4.54,.72-1.92,.92-3.78,.62-5.58-.55-3.07-2.51-4.69-5.87-4.85l-9.6-.04-2.9,16.59Zm5.96,11.17h-7.86l-3.72,21.3h-14.15l10.42-60.23,21.26,.04c6.81,0,12.06,1.59,15.74,4.77,3.68,3.18,5.33,7.53,4.94,13.04-.3,4.35-1.56,7.96-3.76,10.81-2.21,2.85-5.3,5.1-9.27,6.75l8.11,24.11v.7h-15.1l-6.62-21.3Z"/>
      <path class="cls-1" d="M295.26,252.28l21.26,.04c6.81,0,12.06,1.59,15.74,4.77s5.33,7.53,4.94,13.04c-.3,4.35-1.56,7.96-3.76,10.81-2.21,2.85-5.29,5.1-9.27,6.75l8.11,24.11v.7h-15.1l-6.62-21.3h-7.86l-3.72,21.3h-14.15l10.42-60.23m17.62,27.84c2.26,0,4.23-.55,5.89-1.66,1.67-1.11,2.86-2.62,3.58-4.54,.72-1.92,.92-3.78,.62-5.58-.55-3.07-2.51-4.69-5.87-4.85l-9.6-.04-2.9,16.59,8.27,.08m-20.99-31.85l-.58,3.32-10.42,60.23-.81,4.68h22.26l.58-3.31,3.14-17.99h1.55l5.74,18.49,.87,2.81h22.04v-5.36l-.21-.62-6.99-20.78c3.05-1.71,5.57-3.84,7.52-6.36,2.69-3.48,4.23-7.84,4.59-12.98,.48-6.81-1.65-12.31-6.32-16.34-4.41-3.81-10.59-5.74-18.35-5.74l-21.25-.04h-3.37Zm17.47,27.8l1.5-8.62,6.12,.03c1.79,.1,1.89,.69,2.05,1.56,.18,1.06,.04,2.21-.43,3.47-.42,1.13-1.07,1.96-2.04,2.6-1,.67-2.2,.99-3.67,.99l-3.54-.03h0Z"/>
    </g>
    <g>
      <path class="cls-4" d="M358.51,280.86l8.52,.08c3.58-.08,6.33-1.25,8.23-3.5,1.9-2.25,2.66-5.02,2.28-8.31-.22-1.69-.86-3.02-1.92-4-1.06-.98-2.46-1.53-4.2-1.64l-9.89-.04-3.02,17.41Zm-1.94,11.17l-3.56,20.48h-14.15l10.42-60.23,21.63,.04c6.7,0,11.97,1.86,15.82,5.58,3.85,3.72,5.54,8.54,5.07,14.46-.33,4.05-1.63,7.56-3.89,10.54-2.26,2.97-5.25,5.25-8.96,6.82-3.71,1.57-7.87,2.36-12.47,2.36l-9.93-.04Z"/>
      <path class="cls-1" d="M349.28,252.28l21.63,.04c6.7,0,11.97,1.86,15.82,5.58,3.85,3.72,5.54,8.54,5.07,14.46-.33,4.05-1.63,7.56-3.89,10.54-2.26,2.97-5.25,5.25-8.96,6.82-3.71,1.57-7.87,2.36-12.47,2.36l-9.93-.04-3.56,20.48h-14.15l10.42-60.23m17.75,28.67c3.58-.08,6.33-1.25,8.23-3.5,1.9-2.25,2.66-5.02,2.28-8.31-.22-1.69-.86-3.02-1.92-4-1.06-.98-2.46-1.53-4.2-1.64l-9.89-.04-3.02,17.41,8.52,.08m-21.11-32.67l-.58,3.32-10.42,60.23-.81,4.68h22.26l.58-3.32,2.98-17.15,6.55,.03c5.14,0,9.86-.9,14.05-2.67,4.34-1.84,7.9-4.56,10.58-8.08,2.72-3.58,4.3-7.83,4.69-12.63,.57-7.15-1.54-13.09-6.27-17.67-4.6-4.45-10.86-6.7-18.6-6.7l-21.63-.04h-3.37Zm17.34,28.63l1.64-9.44,6.37,.03c1.11,.09,1.5,.45,1.63,.58,.23,.21,.54,.6,.67,1.56,.25,2.18-.18,3.84-1.36,5.23-.72,.86-2.05,2-5.21,2.09l-3.74-.04h0Z"/>
    </g>
    <g>
      <path class="cls-4" d="M358.51,280.86l8.52,.08c3.58-.08,6.33-1.25,8.23-3.5,1.9-2.25,2.66-5.02,2.28-8.31-.22-1.69-.86-3.02-1.92-4-1.06-.98-2.46-1.53-4.2-1.64l-9.89-.04-3.02,17.41Zm-1.94,11.17l-3.56,20.48h-14.15l10.42-60.23,21.63,.04c6.7,0,11.97,1.86,15.82,5.58,3.85,3.72,5.54,8.54,5.07,14.46-.33,4.05-1.63,7.56-3.89,10.54-2.26,2.97-5.25,5.25-8.96,6.82-3.71,1.57-7.87,2.36-12.47,2.36l-9.93-.04Z"/>
      <path class="cls-1" d="M349.28,252.28l21.63,.04c6.7,0,11.97,1.86,15.82,5.58,3.85,3.72,5.54,8.54,5.07,14.46-.33,4.05-1.63,7.56-3.89,10.54-2.26,2.97-5.25,5.25-8.96,6.82-3.71,1.57-7.87,2.36-12.47,2.36l-9.93-.04-3.56,20.48h-14.15l10.42-60.23m17.75,28.67c3.58-.08,6.33-1.25,8.23-3.5,1.9-2.25,2.66-5.02,2.28-8.31-.22-1.69-.86-3.02-1.92-4-1.06-.98-2.46-1.53-4.2-1.64l-9.89-.04-3.02,17.41,8.52,.08m-21.11-32.67l-.58,3.32-10.42,60.23-.81,4.68h22.26l.58-3.32,2.98-17.15,6.55,.03c5.14,0,9.86-.9,14.05-2.67,4.34-1.84,7.9-4.56,10.58-8.08,2.72-3.58,4.3-7.83,4.69-12.63,.57-7.15-1.54-13.09-6.27-17.67-4.6-4.45-10.86-6.7-18.6-6.7l-21.63-.04h-3.37Zm17.34,28.63l1.64-9.44,6.37,.03c1.11,.09,1.5,.45,1.63,.58,.23,.21,.54,.6,.67,1.56,.25,2.18-.18,3.84-1.36,5.23-.72,.86-2.05,2-5.21,2.09l-3.74-.04h0Z"/>
    </g>
  </g>
</svg>