<?xml version="1.0" encoding="utf-8"?>
<!-- Generator: Adobe Illustrator 26.0.2, SVG Export Plug-In . SVG Version: 6.00 Build 0)  -->
<svg version="1.1" id="Laag_1" xmlns="http://www.w3.org/2000/svg" xmlns:xlink="http://www.w3.org/1999/xlink" x="0px" y="0px"
	 viewBox="0 0 738 63.9" style="enable-background:new 0 0 738 63.9;" xml:space="preserve">
<style type="text/css">
	.st0{fill:#FFFFFF;}
</style>
<g transform="translate(0.000000,107.000000) scale(0.100000,-0.100000)">
	<path class="st0" d="M3639,998.7c-24-17-46-36-48-42s-40-48-84-93l-81-83h-82c-78,0-89-3-162-40c-44-22-90-52-103-66
		c-41-44-72-54-162-54c-78,0-87,2-133,33c-48,31-175,152-225,214l-26,31l-72-25c-64-23-75-31-97-69c-17-29-47-58-88-84
		c-35-22-76-58-92-80c-31-41-71-70-98-70c-9,0-49-11-88-25c-58-20-90-25-167-24c-53,0-112,6-131,13c-29,10-43,9-77-2
		c-24-8-45-18-49-23c-8-14-166-11-218,5c-26,8-81,37-121,65c-50,35-90,54-125,61c-28,5-59,14-69,19c-14,8-36,1-97-30
		c-44-23-103-49-132-60c-30-10-76-38-104-61c-49-41-54-43-126-45c-52-1-80-7-91-17c-14-15,298-16,3244-16c1792,0,3255,3,3250,8
		c-6,4-24,20-42,36l-32,28l-27-21c-41-33-122-29-203,9l-64,31l-38-26c-35-22-49-25-135-25h-96l-67,47c-79,57-187,123-256,156
		c-27,14-75,36-105,51c-30,14-84,31-120,36c-37,6-100,27-147,49c-79,38-83,39-163,34l-82-6l-62,66c-70,76-92,82-128,37
		c-12-16-34-44-47-61c-14-18-48-42-77-55c-43-19-58-33-89-84c-43-70-61-80-148-80c-61,0-65,2-177,76c-63,42-131,84-151,94l-35,18
		l-50-32c-27-18-64-38-83-45c-55-18-163-14-223,10c-52,20-72,32-247,145c-51,33-94,54-112,54c-15,0-31,5-34,10c-3,6-19,17-35,25
		C3684,1029.7,3680,1028.7,3639,998.7z"/>
</g>
</svg>
