<?xml version="1.0" encoding="utf-8"?>
<!-- Generator: Adobe Illustrator 26.3.1, SVG Export Plug-In . SVG Version: 6.00 Build 0)  -->
<svg version="1.1" id="Laag_1" xmlns="http://www.w3.org/2000/svg" xmlns:xlink="http://www.w3.org/1999/xlink" x="0px" y="0px"
	 viewBox="0 0 700 570.1" style="enable-background:new 0 0 700 570.1;" xml:space="preserve">
<style type="text/css">
	.st0{stroke:#000000;stroke-width:10;stroke-miterlimit:10;}
</style>
<g>
	<path class="st0" d="M688.3,14.6h-349c-5.3,0-9.9,3.6-11.3,8.7c-0.2,1-0.3,2-0.3,3h-78.4c-5.9,0-11.7,1.5-16.8,4.4L42.5,134.8
		c-27.5,15.1-44,44.7-42.3,76.1l8.5,152.7c0.6,10.9,4.2,21.4,10.5,30.2l73,104l11.2,44.7c1.3,5.2,6,8.8,11.3,8.8h538.5
		c5.3,0,10-3.6,11.3-8.8l11.7-46.7c0-0.1,0-0.2,0-0.3c0-0.2,0.1-0.3,0.2-0.4l23.4-128.3c0.5-2.5,0.1-5.1-1.1-7.3l-23.4-46.6l0,0
		l-5.6-11.2c-3.1-6.1-8.6-10.5-15.2-12.2c-6.6-1.6-13.6-0.3-19.2,3.6l-67.4,48l-123.7-9.5c-9.7-0.8-18-7.5-20.7-16.9l-10-35
		c-2.6-9.3,0.7-19.3,8.4-25.1l121.2-90.5c2.7-2,4.4-5.1,4.7-8.5c0.2-3.4-1-6.7-3.4-9.1l-20.6-20.5l103.5-28.3
		c5.9-1.6,11.2-4.7,15.5-9l53.8-54c3.3-3.3,4.3-8.4,2.5-12.7C697.3,17.4,693.1,14.6,688.3,14.6L688.3,14.6z M644.1,527.9H123.8
		l-5.9-23.3h532L644.1,527.9z M109.1,481.3L38.2,380.4c-3.8-5.3-5.9-11.6-6.3-18.1l-8.5-152.7c-1.2-22.4,10.6-43.5,30.2-54.3
		L243.9,51.1c1.7-0.9,3.6-1.4,5.6-1.5h107.2l39.5,22.6l5.8-10.1l-5.8,10.1l-126.6,63.5c-7.2,3.6-12,10.7-12.8,18.8
		c-0.7,8,2.8,15.9,9.2,20.8l36.4,27.4c0,0.9,0.1,1.7,0.4,2.6l48.2,136.1c15,42,54.7,70,99.3,70h122.9c17.1,0,33.3-7.4,44.4-20.4
		l44.8-52.1l13.8,27.5l-21,114.9L109.1,481.3z M408,235.8c-15.5,11.6-22.2,31.6-16.9,50.2l10,35.1c5.4,18.7,21.9,32.1,41.3,33.7
		l123.7,9.5c5.4,0.4,10.9-1.1,15.3-4.3l67.4-48l2.1,4.2l-51.2,59.5c-6.7,7.8-16.4,12.2-26.7,12.2H450.2c-34.7,0-65.7-21.8-77.3-54.5
		l-37.5-106l1.9,1.4c8,6.1,19,6.3,27.3,0.5l135.6-94.2l18.2,18.1L408,235.8z M626.3,72c-1.4,1.4-3.2,2.5-5.1,3l-121.3,33.2
		c-2.7,0.2-5.2,1.3-7.1,3.2c-0.3,0.4-0.5,0.7-0.7,1.1l-140.7,97.8L280,156.6l126.6-63.5c7.7-3.9,12.6-11.6,12.9-20.2
		c0.2-8.6-4.3-16.6-11.7-20.9h0l-24.5-14.1h277L626.3,72z"/>
	<path d="M355.8,131.2c-16.1,0-29.2,13.1-29.2,29.2c0,16.1,13.1,29.2,29.2,29.2c16.1,0,29.2-13.1,29.2-29.2
		C385,144.3,371.9,131.3,355.8,131.2z M355.8,166.2c-3.2,0-5.8-2.6-5.8-5.8c0-3.2,2.6-5.8,5.8-5.8c3.2,0,5.8,2.6,5.8,5.8
		C361.7,163.6,359.1,166.2,355.8,166.2z"/>
	<path d="M367.5,399.6c-16.1,0-29.2,13.1-29.2,29.2s13.1,29.2,29.2,29.2s29.2-13.1,29.2-29.2C396.6,412.6,383.6,399.6,367.5,399.6z
		 M367.5,434.6c-3.2,0-5.8-2.6-5.8-5.8s2.6-5.8,5.8-5.8s5.8,2.6,5.8,5.8S370.7,434.6,367.5,434.6z"/>
	<path d="M217.8,398l-94.2-32.2c-9.3-3.3-19.7-0.1-25.5,7.9c-6.1,8.1-6.3,19.1-0.5,27.4l32.7,47c4.3,6.1,11.2,9.8,18.7,9.8h61.5
		c12.7-0.1,22.9-10.5,22.9-23.2V420C233.4,410.1,227.1,401.3,217.8,398L217.8,398z M149.4,434.8L117,388.2l93,31.8l0.4,14.6
		L149.4,434.8z"/>
	<path d="M192.5,212.9c-41.9,0-75.8,33.9-75.8,75.8s33.9,75.8,75.8,75.8s75.8-33.9,75.8-75.8C268.3,246.9,234.4,213,192.5,212.9
		L192.5,212.9z M192.5,341.2c-29,0-52.5-23.5-52.5-52.5s23.5-52.5,52.5-52.5s52.5,23.5,52.5,52.5C245,317.7,221.5,341.2,192.5,341.2
		z"/>
</g>
</svg>
