<?xml version="1.0" encoding="utf-8"?>
<svg version="1.1"
	 id="svg4256" xmlns:cc="http://creativecommons.org/ns#" xmlns:dc="http://purl.org/dc/elements/1.1/" xmlns:rdf="http://www.w3.org/1999/02/22-rdf-syntax-ns#" xmlns:svg="http://www.w3.org/2000/svg"
	 xmlns="http://www.w3.org/2000/svg" xmlns:xlink="http://www.w3.org/1999/xlink" x="0px" y="0px" viewBox="0 0 2024.649 1673.024"
	 style="enable-background:new 0 0 2024.649 1673.024;" xml:space="preserve">
<style type="text/css">
	.st0{fill:#271A2A;}
</style>
<g>
	<path class="st0" d="M1748.809,862.575c7.774-10.208,9.668-13.75,8.16-15.227c-2.208-2.163-7.71,3.519-13.374,13.814
		c-4.942,8.982-11.997,16.469-15.847,24.851c-1.465,3.189-5.196,8.906-8.29,12.704c-3.095,3.798-5.626,7.578-5.626,8.399
		c0,2.179-11.598,14.226-11.598,16.932c0,1.04-1.15,4.276-2.555,7.192h0.001l-2.554,5.302
		C1717.581,913.356,1735.256,880.377,1748.809,862.575z"/>
	<path class="st0" d="M1692.945,866.822c1.44-3.753-2.796-1.729-3.586,0.656C1688.365,870.46,1691.789,869.833,1692.945,866.822z"/>
	<path class="st0" d="M1774.699,955.314c5.333-5.741,4.248-10.463-1.308-3.172c-7.609,9.985-12.727,14.468-23.822,30.789
		c-4.336,6.378-9.182,12.736-10.77,14.127c-3.195,2.8-5.738,10.818-4.213,13.285h0.001c1.313,2.124,2.515,1.992,5.622-0.614
		c6.633-5.568,129.434-50.821,110.576-50.821c-4.034,0-7.007,3.011-24.665,9.309c-73.182,26.098-104.967,55.706-73.733,16.56
		C1770.133,962.535,1768.451,962.036,1774.699,955.314z"/>
	<path class="st0" d="M1663.808,980.141c-3.526,4.9-8.812,3.99-7.307,7.91c0.547,1.434,1,3.292,1,4.128v-0.001
		c0,3.138,3.066,1.33,7.417-4.374c3.874-5.079,5.162-5.749,9.308-4.839c10.606,2.329-0.753-5.903,3.151-8.316
		c0.913-0.565,1.661-2.507,1.661-4.317c0-1.81,3.728-8.815,8.284-15.566c9.904-14.676,10.727-19.494,1.558-9.112
		c-5.4,6.114-6.873,7.008-8.187,4.97c-2.387-3.699-1.033-8.284-3.083-8.284c-1.81,0-3.886,17.057-2.511,20.638
		c1.522,3.966-5.22,7.813-3.768,11.606C1672.928,978.748,1667.335,975.24,1663.808,980.141z"/>
	<path class="st0" d="M1737.624,1040.917c3.155,8.225,12.426-7.454,3.542-7.454
		C1738.126,1033.462,1736.265,1037.378,1737.624,1040.917L1737.624,1040.917z"/>
	<path class="st0" d="M1631.625,917.491c2.88,0,5.483-12.772,3.089-15.166c-1.999-1.999-7.693,9.403-6.391,12.797h0.001
		C1628.824,916.425,1630.309,917.491,1631.625,917.491z"/>
	<path class="st0" d="M1550.208,997.304c-4.788-2.43-13.325,0.905-16.112,6.296c-7.894,15.265,5.494,19.535,13.943,15.014
		C1555.021,1014.877,1556.486,1000.491,1550.208,997.304z"/>
	<path class="st0" d="M1404.034,1245.11c0,2.412,5.96,2.813,7.377,0.519c1.392-2.251,30.462-15.85,33.969-19.274
		C1456.243,1215.745,1404.034,1239.81,1404.034,1245.11z"/>
	<path class="st0" d="M1680.584,907.964c-0.101-5.59-0.288-5.848-1.869-2.577c-0.967,2-1.315,4.796-0.769,6.213h0.001
		C1679.62,915.963,1680.7,914.473,1680.584,907.964z"/>
	<path class="st0" d="M1646.207,922.664c27.82-29.185,16.593-20.084,10.369-20.084c-3.053,0-7.361,6.751-9.029,14.147v0
		L1646.207,922.664z"/>
	<path class="st0" d="M1642.592,977.133c0-1.928-0.998-2.406-2.485,0C1638.743,979.34,1642.592,979.344,1642.592,977.133z"/>
	<path class="st0" d="M1743.652,1021.558c0-3.44-1.718-3.661-10.19-1.308c-5.876,1.632-9.008,5.326-7.113,8.392
		C1728.73,1032.495,1743.652,1026.387,1743.652,1021.558z"/>
	<path class="st0" d="M1791.219,935.98c4.679-4.812,10.113-4.549,7.686-6.975c-2.01-2.01-15.477,4.899-15.477,7.952
		C1783.407,940.023,1787.827,939.469,1791.219,935.98z"/>
	<path class="st0" d="M1327.029,386.172c4.517,3.829,12.567,10.938,17.889,15.799h-0.001c20.663,18.874,8.997,1.302-18.986-21.042
		C1317.425,374.137,1318.417,378.872,1327.029,386.172z"/>
	<path class="st0" d="M1844.083,995.942c-2.843,1.519-10.178,3.803-16.302,5.075c-16.103,3.344-64.864,20.848-71.241,20.848
		c-3.781,0-9.442,6.155-9.519,10.355h0.001c-0.068,3.522,4.252,3.798,7.567,0.483c4.131-4.131,98.653-32.262,99.705-35.436
		C1855.422,993.882,1849.399,993.1,1844.083,995.942z"/>
	<path class="st0" d="M1748.052,949.502c-0.76-0.76-21.215,6.746-25.191,9.244h0.001
		C1712.506,965.251,1749.571,951.022,1748.052,949.502z"/>
	<path class="st0" d="M1680.481,973.741l3.006,4.129l0.001,0c3.243,4.454,5.926,5.635,4.528,1.993
		c-1.012-2.637,3.822-5.97,14.361-9.903c5.561-2.075,19.247-8.803,7.725-6.937c-9.483,1.536-6.502-1.628,1.011-11.57
		C1690.053,970.904,1711.566,961.413,1680.481,973.741z"/>
	<path class="st0" d="M1536.156,929.502c-1.543-2.819-4.582-12.011-7.414-12.011c-2.804,0-2.719,0.455,1.355,7.36h-0.001
		C1535.017,933.191,1536.736,930.559,1536.156,929.502z"/>
	<path class="st0" d="M750.439,160.363L750.439,160.363c7.702,3.565,7.456,3.898,7.456,1.715c0-3.529-17.357-9.429-19.159-6.513
		C737.565,157.457,741.459,156.206,750.439,160.363z"/>
	<path class="st0" d="M1675.726,990.583c0,2.161,3.314,0.161,3.314-2.048C1679.04,986.376,1675.726,988.37,1675.726,990.583z"/>
	<path class="st0" d="M1685.667,993.701c2.189,0,2.19-3.313,0-3.313C1683.478,990.387,1683.477,993.701,1685.667,993.701z"/>
	<path class="st0" d="M1675.726,990.583C1675.726,990.583,1675.726,990.583,1675.726,990.583L1675.726,990.583z"/>
	<path class="st0" d="M612.102,699.628c0,3.286,3.314,3.286,3.314,0C615.416,696.342,612.102,696.341,612.102,699.628z"/>
	<path class="st0" d="M1582.178,1227.3c-2.701,0-6.332,5.599-4.694,7.237c1.847,1.847,3.648,1.128,5.406-2.158
		C1585.172,1228.114,1585.058,1227.3,1582.178,1227.3z"/>
	<path class="st0" d="M1573.008,1245.958c0,2.139,4.313-0.434,6.762-0.434c0.837,0,1.521-1.491,1.521-3.313
		C1581.291,1233.761,1573.008,1244.899,1573.008,1245.958z"/>
	<path class="st0" d="M1573.008,1245.958C1573.008,1245.958,1573.008,1245.958,1573.008,1245.958L1573.008,1245.958z"/>
	<path class="st0" d="M1020.504,778.35h-0.016c0.572,0.926,1.734,1.255,2.583,0.731c2.029-1.244,2.016-5.728,0-5.728
		C1020.836,773.353,1019.282,776.373,1020.504,778.35z"/>
	<path class="st0" d="M1416.217,719.511c-1.252-3.263-5.061-3.381-2.255,0C1416.395,722.442,1417.588,723.083,1416.217,719.511z"/>
	<path class="st0" d="M1039.277,707.084c10.349-7.496,10.571-3.308,13.202-9.081c3.732-8.191,9.569,1.642,13.5-5.7
		c2.687-5.016,3.376-0.452,8.925-3.098c1.963-0.936,4.818-2.097,6.344-2.58c3.879-1.229,8.991-12.343,6.72-14.613
		c-2.336-2.335-6.803,1.036-43.458,19.343c-12.045,6.015-15.781,9.473-17.447,16.143l-0.001,0.001
		C1025.126,715.26,1032.859,711.733,1039.277,707.084z"/>
	<path class="st0" d="M1492.039,1245.938c2.061-2.628,2.002-2.686-0.626-0.626
		C1486.651,1249.047,1488.35,1250.641,1492.039,1245.938z"/>
	<path class="st0" d="M284.067,1432.735c0,2.188,3.313,2.189,3.313,0C287.381,1430.547,284.067,1430.547,284.067,1432.735z"/>
	<path class="st0" d="M1563.01,1265.517L1563.01,1265.517c-4.825,9.449-0.155,9.376,5.021-4.237
		C1570.512,1254.755,1566.98,1257.735,1563.01,1265.517z"/>
	<path class="st0" d="M655.152,841.596c-0.044-4.821-3.263,2.509-3.263,3.509C651.86,846.633,655.152,845.556,655.152,841.596z"/>
	<path class="st0" d="M1039.925,769.249L1039.925,769.249c6.408,6.403,9.556,4.494,9.556-5.795
		C1049.481,751.189,1030.658,759.989,1039.925,769.249z"/>
	<path class="st0" d="M1747.795,1064.939c0-2.739-5.799-5.389-5.799,0C1741.996,1070.272,1747.795,1067.725,1747.795,1064.939z"/>
	<path class="st0" d="M1025.636,735.94c1.734,4.516,1.616,4.149,41.242-16.432c0.886-13.88,1.426-15.739-2.124-15.739
		c-2.99,0-33.731,15.006-38.054,18.577c-2.184,1.804-2.762,9.174-1.065,13.594L1025.636,735.94z"/>
	<path class="st0" d="M1475.261,971.335c-0.911,0.563-1.657,2.471-1.657,4.24h0.001c0,9.417,12.36-6.413,27.011-14.176
		c6.714-3.557,7.704-8.097,2.48-11.371c-3.266-2.047-21.629,3.258-30.846,8.912c-6.784,4.161-6.681,9.332,0.171,8.605
		C1476.838,967.076,1478.519,969.321,1475.261,971.335z"/>
	<path class="st0" d="M1486.859,935.963c5.217-1.818,6.673-6.326,2.554-7.906c-7.63-2.927-34.032,14.95-34.032,18.443
		c0,4.2,4.559,4.69,9.258,0.994c6.461-5.082,8.508-2.251,2.186,3.026c-3.689,3.08-5.057,5.378-4.329,7.274l0.001,0.001
		c2.271,5.915,3.486,1.28,23.516-8.97c23.718-12.137,3.769-12.247-0.729-9.84C1480.885,941.339,1480.117,938.313,1486.859,935.963z"
		/>
	<path class="st0" d="M1439.878,855.781c-4.726,2.154-25.916,21.651-25.916,23.846c0,3.15,5.023,3.264,9.468,0.213
		c5.109-3.507,16.211-7.082,21.991-7.082c6.681,0-39.846,20.17-19.301,18.721c6.252-0.441,3.613,1.002,1.544,8.201l-0.001,0
		c-1.259,4.378,3.599,3.603,8.993-1.436c6.881-6.425,23.694-16.746,23.694-18.801c0-2.258-7.646-6.284-8.529-10.922
		c-1.272-6.706-12.969-0.997-7.062-7.524C1448.802,856.53,1445.643,853.154,1439.878,855.781z"/>
	<path class="st0" d="M1454.885,920.382c-7.767,3.444-9.51,4.924-9.107,7.725c1.079,7.46,11.475-2.085,6.212,7.75
		c-0.952,1.781-1.283,3.969-0.731,4.861v0c3.578,5.789,11.955-7.442,25.97-15.319c6.656-3.741,8.003-7.76,3.777-11.266
		C1478.026,911.66,1470.491,913.462,1454.885,920.382z"/>
	<path class="st0" d="M1468.335,894.056c-2.567-17.253-36.149,10.105-36.149,13.656c0,4.497,1.414,0.303,5.946,9.76l0,0
		c5.843,12.194,5.333,4.644,26.256-5.146C1486.036,902.196,1469.408,901.234,1468.335,894.056z"/>
	<path class="st0" d="M200.969,1309.683c-4.968,7.535-4.081,37.332,3.396,9.403c1.876-7.009,5.898-12.141,14.348-18.314
		C229.972,1292.549,210.858,1294.685,200.969,1309.683z"/>
	<path class="st0" d="M1976.322,1014.36c4.359-4.04,4.618-4.983,3.728-13.607c-2.037-19.747-15.149-26.215-5.93-34.547
		c2.889-2.61,3.34-4.446,2.608-10.611c-1.385-11.653-3.874-16.541-9.404-18.469c-11.973-4.174,1.647-11.285,1.647-16.32
		c0-6.153-6.771-22.005-10.729-25.119c-3.466-2.726-4.181-4.694-4.181-11.503c0-13.164-14.734-31.98-16.117-32.51
		c-1.159-0.445-2.107-2.417-2.107-4.381c0-10.067-25.431-33.145-27.295-39.018c-1.387-4.369-19.618-20.544-24.501-21.739
		c-2.024-0.495-4.496-2.54-5.496-4.545c-6.323-12.693-24.731-18.547-28.121-18.562c-1.872-0.009-6.345-2.715-9.941-6.013
		c-8.095-7.426-22.31-13.884-30.562-13.884c-8.552,0-4.647-2.302-22.374-10.828c-20.068-9.651-24.231-3.182-34.449-8.498
		c-6.355-3.305-57.899-9.612-71.946-4.826c-14.825,5.051-29.119-0.194-41.108,6.01c-3.988,2.064-8.304,3.064-11.001,2.55
		c-9.787-1.866-92.785,24.692-123.13,46.29c-2.734,1.946-7.989,4.393-11.679,5.438c-17.576,4.981-27.232,26.178-40.602,11.538
		c-23.289-25.506,51.604,98.116,55.893,98.116c4.89,0,7.195-5.953,15.372-4.156c5.661,1.243,6.309,0.024,2.327-4.377
		c-3.97-4.386-2.546-1.201,12.974-11.633c14.159-9.518,10.806-3.627,22.725-11.12c10.707-6.731,22.984-10.417,29.138-8.747
		c4.495,1.219,4.97,1.999,4.97,8.125c0,25.428,11.897-10.174,4.574-14.272c-4.261-2.385-1.999-3.652,14.057-7.876
		c21.946-5.774,21.923-5.781,22.155,5.596c0.111,5.24-0.011,10.272-0.265,11.183c-3.683,13.174-0.054,42.823,4.987,6.627
		c0.762-5.467,2.306-14.925,3.432-21.016c2.3-12.448,0.418-11.329,23.379-13.897c11.536-1.29,11.224-2.06,10.715,26.179
		c-0.331,18.45-0.795,21.558-3.708,24.851c-12.993,14.684-4.917,12.307-6.743,17.485c-0.816,2.321-0.588,2.464,1.232,0.775
		c2.721-2.524,8.197-2.736,8.197-0.316c0,0.965,0.746,1.294,1.657,0.731c2.965-1.833,1.974-12.107-1.242-12.872
		c-2.321-0.552-2.023-1.051,1.495-2.504c5.247-2.167,7.614-5.333,3.987-5.333c-2.643,0-3.39-4.253-1.577-8.977
		c1.461-3.809,5.48-1.485,8.671-4.678c1.639-1.638,2.376-1.554,3.62,0.414c3.533,5.586,29.786-31.492,32.337-31.492
		c5.677,0,26.705,8.674,30.222,12.467c2.416,2.607,5.613,4.101,8.771,4.101c5.011,0,17.021,5.212,18.858,8.184
		c0.545,0.883,4.773,3.663,9.394,6.178c7.932,4.317,26.287,23.77,26.287,27.859c0,3.083-20.744,23.739-17.672,26.809
		c4.217,4.216,14.899-16.149,19.313-20.142c2.819-2.552,3.65-2.642,6.06-0.658c4.935,4.064,12.18,15.118,12.18,18.584
		c0,1.849,2.504,5.655,5.563,8.457c13.65,12.503,9.152,35.909,13.772,41.013c3.807,4.207,4.916,22.658,1.732,28.817
		c-5.262,10.167,3.208,0.557,1.306,25.543c-0.829,10.902-5.364,36.489-7.042,26.922c-0.359-2.05-1.201-3.728-1.871-3.728
		c-6.477,0-49.88,23.234-60.464,23.155c-5.354-0.04-28.988-5.831-30.717-7.526c-3.053-2.992-2.447-19.436-19.214-8.057
		c-8.19,5.558-14.41,4.186-15.722-3.467c-0.742-4.321-1.616-4.998-7.052-5.448c-3.412-0.283-6.205-1.117-6.205-1.855
		c0-0.737,2.982-5.086,6.627-9.663c13.494-16.947,1.514-10.36,5.094-19.774c2.034-5.348,0.085-10.493-6.887-2.219
		c-9.843,11.681-0.045,28.872-11.345,24.648c-3.695-1.382-3.807-1.723-1.367-4.164c2.44-2.44,2.316-3.202-1.517-9.274
		c-4.344-6.881-3.543-9.406,3.005-9.467c2.909-0.027,4.733-3.281,4.733-8.444c0-5.469-7.751-1.672-5.729-4.948
		c2.029-3.281,5.729,2.423,5.729-3.878c0-4.332-4.564-9.135-6.339-6.671c-0.613,0.852-3.867,2.948-7.231,4.658
		c-8.704,4.424-10.435,10.974-2.899,10.974c3.454,0,4.108,2.65,1.624,6.578c-1.267,2.005-2.512,2.096-7.016,0.519
		c-8.206-2.875-24.202-5.461-27.041-4.371c-1.374,0.528-3.504,0.125-4.732-0.895c-2.885-2.395-13.411,1.775-16.346,6.475
		c-6.082,9.738-9.019-5.533-3.057-7.092c3.735-0.977,9.06-10.426,7.769-13.789c-1.296-3.376-3.788-2.868-4.794,0.978
		c-1.749,6.688-12.865,2.282-16.291-6.458c-1.339-3.414-1.842-3.627-3.576-1.51c-2.472,3.014-11.582,7.898-14.979,9.828
		c-4.068-4.069-2.564-2.565-6.632-6.633c7.443-10.808,17.645-26.705,23.616-26.705c2.204,0,3.375-1.672,4.182-5.968
		c2.595-13.84-3.524-2.276-9.397-0.168c-1.565,0.562-3.887,3.511-5.158,6.554c-2.628,6.291-10.071,11.908-13.854,10.457
		c-2.016-0.774-2.34-2.761-1.569-9.652c1.507-13.478,2.039-81.977,0.647-83.37c-2.771-2.771-3.735,2.137-3.874,19.745
		c-0.26,32.605-2.601,73.12-4.324,74.829c-2.165,2.146-1.901,0.275-18.527-22.134c-17.794-23.983-17.635-28.735-20.409-27.67
		c-2.651,1.017-3.456-1.656,1.159-2.863c2.932-0.767,3.34-2.364,3.545-13.861c0.44-24.677-0.731-30.391-6.232-30.391
		c-1.786,0-2.283,3.609-2.283,16.626c0,15.904,1.78,21.49-12.543,7.169c-7.213-7.213-10.645-9.676-0.086,12.614
		c1.069,2.257,5.051,6.357,8.849,9.112c11.736,8.514,43.283,63.653,49.38,62.483c5.849-1.122-5.919,9.535,2.032,9.676
		c4.263,0.076,14.664,8.2,19.467,8.259c5.512,0.073,30.394,28.588,8.202,62.459c-3.634,5.546-4.921,3.628-1.72-2.562
		c1.421-2.748,3.077-10.302,3.679-16.786c4.524-48.676-42.475-41.781-43.829-53.605c-0.379-3.292-1.342-4.492-3.313-4.128
		c-1.936,0.357-4.471,5.8-8.346,17.909c-7.082,22.135-7.115,22.194-12.83,23.266c-10.77,2.02-25.508,7.22-25.508,9.001
		c0,2.805,9.941,8.293,9.941,11.318c0,2.676-20.757,11.742-24.018,10.49c-1.369-0.525-2.49-2.813-2.49-5.084
		c0-11.03-19.804-9.989-10.769-25.797c3.65-6.384,3.055-7.089-4.97-5.885c-4.101,0.615-7.43,0.513-7.43-0.226
		c0.101-5.341,12.28-13.77,19.896-13.77c6.814,0,50.427-18.041,38.065-25.68c-2.661-1.644-0.418-9.112-4.04-9.112
		c-1.547,0-2.275,1.527-2.071,4.358c0.299,4.179-0.078,4.38-9.205,4.91c-18.314,1.062-45.056,13.257-52.742,24.052
		c-4.378,6.148-9.686,6.548-8.557,0.644c0.944-4.935-2.801-5.669-7.082-1.388c-2.328,2.328-2.983,2.392-4.235,0.414
		c-2.573-4.062-0.102-6.871-5.26-5.695c-5.824,1.328-29.406-17.644-29.399-18.644c0.005-0.657,1.795-3.428,3.978-6.156
		c3.927-4.909,4.006-4.928,7.447-1.814c5.108,4.623,4.313,1.625-3.715-14.009c-14.915-29.042-50.005-127.371-68.346-158.44
		c-5.82-9.86-10.597-19.243-10.597-20.851c-0.016-3.13,8.987-9.485,13.45-9.496c4.654-0.011,6.626-4.39,7.227-16.053
		c1.385-26.878,10.33-39.462,25.845-36.359c6.072,1.214,6.1-0.425,0.105-6.168c-6.592-6.316-12.553-19.571-11.208-24.927
		c2.12-8.451,17.475-13.016,53.204-15.819c35.382-2.775,16.264-1.1,164.017-75.539c28.843-14.532,37.659-20.186,99.404-10.612
		c28.618,4.438,73.171,6.182,80.668,3.159c17.803-7.18,27.664-23.838,20.317-34.327c-8.134-11.614-41.98-19.83-153.172-64.202
		c-55.84-22.284-31.593,6.05-154.077,17.59c-9.694,0.913-51.021,11.275-69.163,17.342c-48.519,16.225-19.328,4.936-37.868-50.453
		c-3.74-11.17-7.214-16.868-24.679-40.466c-10.072-13.609-72.678-40.824-39.72-18.198c5.034,3.455,17.149,14.02,26.922,23.477
		c31.859,30.829-7.198-4.114,4.386,13.928c3.172,4.942,5.262,19.409,2.802,19.409c-5.84,0,4.318-19.866-10.512-7.388
		c-6.331,5.328-7.696,4.139-2.93-2.553c9.141-12.837-4.778-1.617-15.32,6.716l-3.938-5.336c-5.437-7.367-5.365-15.869,0.144-17.251
		c5.229-1.312,6.489-5.452,4.224-13.868c-1.435-5.33-2.577-6.708-5.554-6.708c-6.956,0-6.508,6.937-9.628-3.524
		c-4.273-14.332-21.378-32.309-24.07-25.296c-0.676,1.763,1.236,4.645,5.767,8.688c6.178,5.514,7.306,7.862,12.717,26.483
		c8.801,30.288,11.465,23.964,14.255,39.143c2.548,13.858,18.013,46.439,22.903,33.615c1.088-2.856,14.278-21.709,19.222-15.004
		c1.359,1.843,2.739,1.897,7.354,0.288c5.498-1.917,5.859-1.775,11.167,4.365c15.025,17.384-10.101,17.186-9.129,31.621
		c0.744,11.046-5.839,9.837-18.385,9.602c-3.428-5.217-18.541-28.802-20.432-28.802c-3.21,0,7.821,36.215,11.455,37.61
		c2.919,1.119,2.796,4.664-0.453,13.173c-2.12,5.55-4.004,7.524-9.145,9.581c-6.268,2.508-6.691,2.455-13.189-1.647
		c-20.526-12.957-23.254-7.264-47.043-30.224c-8.212-7.926-15.145-15.21-15.41-16.185c-0.264-0.976,2.565-5.597,6.286-10.269
		c10.737-13.485,12.787-32.729,5.814-54.577c-3.595-11.262-3.806-13.137-1.657-14.742c3.809-2.846,3.042-7.27-1.266-7.298
		c-5.912-0.041,0.687-3.386,4.003-2.354c4.085,1.27,5.716-2.717,2.171-5.308c-5.438-3.977-17.641-2.221-22.373-7.879
		c-22.348-26.728-16.859-26.667-38.14-18.776c-23.303,8.64-23.114,8.602-23.114,4.773c0-8.589-9.236,2.282,4.223-16.237
		c2.57-3.534,2.516-3.562-7.297-3.562c-8.728,0-12.284-1.173-30.382-10.024c-21.203-10.369-23.353-12.164-48.612-40.58
		c-2.565-2.886-5.173-4.335-6.726-3.739c-4.767,1.83-15.487-8.563-15.606,0.681c-0.021,2.379-0.258,2.432-1.573,0.354
		c-4.65-7.354,15.988-5.514-12.645-21.371c-25.778-14.277-39.431-4.983-44.77-20.551c-2.628-7.665-13.34-21.072-16.836-21.072
		c-4.827,0-16.875-8.328-17.889-12.365c-0.755-3.01,1.888-8.782,11.015-24.045c20.084-33.586,26.702-26.305,34.44-41.881
		c8.678-17.469,11.249,0.669,54.747-1.926c20.364-1.215,28.63-3.618,31.612-9.191c3.478-6.5,1.363-10.171-9.753-16.918
		c-9.801-5.949-46.891-34.415-50.689-38.904c-10.039-11.864-40.59-11.408-40.59-18.989c0-2.633,13.682-1.581,16.861,1.297
		c5.048,4.567,5.415,1.088,0.502-4.751c-15.695-18.654-46.195-13.341-52.031-29.893c-2.966-8.411-8.253-0.938-15.738-8.424
		c-16.608-16.609-61.796-20.592-84.616-17.854c-49.321,5.918-57.478,8.469-70.202,21.952c-5.04,5.341-10.162,9.711-11.38,9.711
		c-3.818,0-14.881,6.36-15.961,9.177c-1.724,4.493-1.192,5.734,2.461,5.734c3.343,0,28.858,17.44,38.28,26.164
		c21.123,19.557-40.83-19.757-42.003-21.607c-2.081-3.283-10.166,3.14-5.563,17.001c1.964,5.916,2.215,9.507,1.031,14.776
		c-1.21,5.386-1.064,7.153,0.642,7.807c7.068,2.712,0.742,13.547-2.016,12.628c-2.074-0.691-5.404,9.236-5.46,16.127
		c-0.009,2.419-2.829,14.91-12.266,14.91c-14.903,0,5.78,7.133-24.185-1.424c-13.852-3.956-19.137-6.647-21.207-10.797
		c-3.469-6.952-7.317-8.116-20.215-6.115c-16.444,2.551-24.298,1.197-25.676,3.425c-1.582,2.559-5.799,1.957-5.799-0.829
		c0-6.763-23.617,0.55-35.47,10.982c-13.1,11.531-30.949,47.035-28.518,56.724c0.547,2.179,4.362,7.707,8.478,12.285
		c11.655,12.965,7.486,18.584,12.61,18.584c3.319,0,5.843,6.475,4.197,10.765c-1.369,3.569-7.685,3.067-11.96-0.949l-3.659-3.438
		c-26.812,16.172-19.407,10.551-95.612,85.571c-58.605,109.405-60.143,90.65-60.36,108.024c-0.235,18.39,8.028,13.439-3.032,22.907
		c-9.66,8.268-14.177,16.132-12.819,22.316c2.133,9.71-18.972,21.857-22.498,35.603c-5.71,22.275-24.087,58.222,1.404,128.185
		c4.071,11.175,33.921,51.744,60.856,58.338c23.999,5.876,53.615,33.318,56.101,36.069c3.662,4.052,4.906,3.618-22.138,7.717
		c-77.833,11.797-5.256,11.009,74.553,12.885v4.073c0,6.983-10.929,11.275-9.2,16.72c2.977,9.383-23.922,8.339-29.503,24.069
		c-0.878,2.476-2.166,2.879-6.566,2.053c-7.104-1.333-94.563,5.984-135,24.278c-81.84-26.176-76.086-26.109-68.699-11.932
		c5.289,10.152-1.587,8.936,92.408,33.954c31.748,8.451,42.061,11.84,44.171,14.518c1.599,2.03,4.71,3.524,7.424,3.563
		c10.853,0.16,4.362,11.466-8.456,14.728c-7.742,1.97-8.416,2.584-11.639,10.602c-4.196,10.437-4.726,10.994-8.56,8.984
		c-4.221-2.212-29.46-10.223-32.208-10.223c-8.861,0-137.685-46.388-168.692-46.388c-7.927,0-9.032-1.503-8.793-11.973
		c0.24-10.542-0.64-7.201-11.557-12.96c-9.021-4.758-11.27-2.229-16.183-4.858c-5.343-2.859-2.243,3.283-8.371,3.283
		c-1.896,0-5.526,1.075-8.066,2.388c-4.35,2.25-4.575,2.903-3.882,11.265c1.482,17.874-6.227,9.116-6.24,32.449
		c-0.006,12.309-1.075,25.82,46.254,25.326c23.434-0.244,26.357-2.568,37.853-8.345c34.392,9.814,195.795,55.725,200.254,57.705
		c6.031,2.679,11.908,29.078,17.034,34.985c4.404,5.074,60.254,20.983,69.743,23.6c19.349-20.879,36.018-11.89,49.128-16.161
		c4.095-1.335,4.631,0.816,8.969,9.205c-61.904,26.212-6.933,12.97-37.422,27.134c-32.781,15.23-34.167,16.118-37.645,24.107
		c-3.638,8.357-4.358,23.101-1.481,30.347c3.316,8.356,2.888-1.144,16.661,7.694c39.165,25.133,50.929-0.818,53.474,25.688
		c0.402,4.221-0.392,5.326-5.629,7.828c-7.98,3.813-27.825,8.63-49.004,11.893c-31.593,4.868-41.952,19.721-74.95,28.622
		c-39.454,10.644-211.38,82.579-220.14,81.158c-7.626-1.237-8.341-2.442-3.688-6.214c4.103-3.326,4.635-7.583,3.187-25.484
		c-0.649-8.016-4.941-9.504-11.817-4.095c-11.228,8.832,4.881,11.015-1.211,14.987c-6.621,4.317-12.796-8.317-27.044,4.816
		c-8.483,7.819-10.956,13.731-10.753,25.711c0.256,15.154-3.975,18.587,0.365,21.016c8.296,4.642-7.379,12.463-2.649,14.15
		c9.963,3.553,5.654,16.526,8.062,22.8c0.9,2.345,0.198,2.578-4.896,1.622c-5.39-1.011-6.044-0.724-6.996,3.066
		c-3.487,13.892,7.613,10.061,7.508,11.6c-0.461,7.102-10.513,22.439,4.098,28.544c8.297,3.467,10.278,3.07,16.686-3.338
		c18.538-18.538-13.277-14.231-12.134-24.078c0.452-3.888,0.984-4.106,8.692-3.557c24.402,1.738,11.234,9.729,18.369,12.467
		c4.272,1.639-1.189,3.741,0.272,11.382c1.152,6.024-0.046,3.474-16.67,14.081c-9.815,6.263-11.252,7.796-10.584,11.288
		c1.998,10.452-8.951-2.859-14.921-9.588c-19.512,3.487-28.124,4.472-20.71,8.435c8.973,4.795,40.192-22.24-2.598,31.573
		c-10.901,13.709-11.269,13.989-21.023,15.949c-7.341,1.476-10.245,1.509-11.145,0.129c-6.256-9.597,12.485-16.113,8.888-19.71
		c-1.204-1.204-2.548-1.054-4.413,0.494c-3.62,3.005-5.684-0.27-5.717-9.077c-0.023-5.823,1.053-7.595,9.744-16.046
		c6.812-6.625,11.576-9.839,15.739-10.62c5.809-1.09,8.63-5.721,3.485-5.721c-2.814,0-3.333-2.594-0.828-4.142
		c3.087-1.907,2.887-12.878-9.024,1.657c-5.607,6.843-11.562,9.512-14.552,6.522c-0.999-1,1.82-19.85,8.043-24.951
		c3.288-2.694,4.036-4.439,3.199-7.455c-0.966-3.483-0.837-3.622,1.122-1.209c3.115,3.839,11.994,6.741,16.55,10.042
		c2.239,1.622,3.288,1.634,4.866,0.055c3.417-3.416-14.718-16.965-16.513-16.965c-2.653,0-1.362-7.948,2.527-15.554
		c5.765-11.277-6.283-20.894,2.369-20.894c7.83,0,10.756-16.909,13.339-9.927c3.333,9.011,14.482-3.673,15.614-9.539
		c2.319-12.024-9.23,1.635-4.223-11.489c11.955-31.33-3.057-24.249,11.365-30.454c7.959-3.424,18.333-12.853,18.333-16.663
		c0-0.961,1.656-3.089,3.68-4.728c7.211-5.839,0.979,2.913,14.479-0.176c11.3-2.586,10.096-5.995,14.153-1.511
		c1.646,1.819,4.399,3.308,6.116,3.308c4.253,0,14.717-5.501,18.572-9.764c4.592-5.077,5.565-1.855,12.327-6.529
		c9.348-6.46,59.974-29.718,67.834-37.794c2.175-2.234,5.746-3.898,8.367-3.898c5.367,0,1.572-0.111,33.399-14.529
		c115.897-52.502,128.495-40.061,115.556-53.165c-25.049-25.365-31.186-26.971-50.884-38.662
		c-45.988-27.294-126.81-26.103-158.884-9.963c-7.623,3.836-15.451,6.999-17.396,7.026c-5.131,0.074-18.414,8.188-23.897,8.217
		c-5.54,0.022-16.448,6.046-19.567,10.805c-1.485,2.266-4.142,4.12-5.905,4.12c-11.651,0-24.183,18.218-29.196,18.235
		c-4.696,0.018-12.456,6.108-15.19,11.922c-1.932,4.108-3.8,5.597-7.534,6.005c-6.196,0.677-14.076,7.943-14.076,12.979
		c0,2.606-1.682,4.65-5.384,6.544c-10.137,5.186-17.81,12.304-17.81,16.522c0,2.202-0.559,4.065-1.242,4.141
		c-24.448,2.712-12.708,20.266-24.716,23.377c-7.066,1.831-16.085,12.211-14.663,16.874c2.13,6.982,1.724,8.477-2.454,9.048
		c-6.267,0.857-9.94,5.043-9.94,11.33c0,11.823-7.776,1.487-18.854,19.295c-9.475,15.23,4.058,12.886-4.269,21.75
		c-2.034,2.165-5.478,4.384-7.653,4.929c-4.669,1.172-8.985,8.702-8.985,15.675c0,2.725-0.757,5.423-1.682,5.994
		c-2.814,1.739-6.402,11.987-5.459,15.593c1.461,5.585-0.888,11.42-5.52,13.713c-5.221,2.584-7.736,10.842-10.675,18.396
		c7.15,7.463,12.807,11.844,1.139,16.718c-11.079,4.628-9.259,24.206-6.871,32.872c2.236,8.115-6.079,11.935-8.14,27.144
		c-1.313,9.689-1.222,8.422,9.871,17.288c-8.354,7.368-9.112,6.74-9.112,18.141c0,9.833,0.145,10.165,5.384,12.359
		c10.009,4.19,8.124,4.612-2.379,15.448c3.795,18.498,4.01,22.517,11.471,25.354c8.769,3.334-3.386,12.009,6.62,33.39
		c3.912,8.359,6.23,11.202,10.962,13.448c6.795,3.224,9.589,7.279,8.331,12.091c-1.267,4.844,11.457,20.444,16.675,20.444
		c3.042,0,4.221,1.133,5.035,4.84c1.061,4.83,14.271,20.559,22.144,18.984c4.55-0.91,5.152-0.434,8.223,6.508
		c1.822,4.119,4.825,8.299,6.673,9.288c4.452,2.383,12.365,2.289,14.83-0.176c1.527-1.527,3.959,0.159,10.749,7.455
		c23.695,25.461,22.408-12.253,32.031,6.53c1.517,2.961,3.587,5.932,4.599,6.602c3.651,2.415,12.092,1.271,15.094-2.046
		c4.117-4.548,9.815-4.188,13.102,0.829l0.003-0.002c4.094,6.249,16.445,4.658,21.216,0.905c8.608-6.771,24.247,1.084,33.892-6.041
		c8.065-5.958,25.326-4.251,42.478-16.051c10.999-7.568,22.246-6.464,33.659-18.358c13.493-14.06,25.582-8.448,35.767-21.122
		c9.654-12.014,16.326-5.081,25.14-22.523c5.589-11.062,17.965-3.864,21.754-19.047c1.742-6.981,8.156-12.906,13.97-12.906
		c5.714,0,11.676-5.006,11.676-9.805c0-13.463,14.911-10.254,14.911-20.403c0-21.8,24.851-13.696,24.851-29.618
		c0-8.702,5.998-17.888,13.89-21.271c7.154-3.067,12.588-11.02,10.185-14.908c-1.81-2.929,0.788-8.369,3.998-8.369
		c4.932,0,7.244-4.557,8.251-16.258c0.901-10.473,1.238-11.203,6.176-13.378c6.619-2.916,8.859-7.87,8.859-19.599
		c0-9.346,2.949-15.377,7.519-15.377c1.12,0,3.69-4.075,5.712-9.056c3.605-8.883,4.029-9.251,22.144-19.261
		c78.865-43.578,97.05-55.584,102.051-52.907c4.966,2.658,25.643,28.839,35.674,33.396c19.389,8.808,41.158-2.996,70.601-17.227
		c168.596-7.917,49.834-9.795,158.885-35.167c18.68-4.346,39.554-9.708,46.389-11.916c47.282-15.276,92.502-54.632,114.202-93.298
		c6.819-12.15,21.795-63.074,22.236-75.625c0.196-5.544-0.847-8.226-5.406-13.9c-11.89-14.798-10.189-49.641-2.433-49.641
		c7.752,0,27.36,25.535,52.219,5.774c14.617-11.619,10.529,0.709,40.138-12.548c22.941-10.272,28.382-16.783,38.146-45.635
		c15.664-46.294,34.014-75.775,65.739-105.62c14.651-13.783,21.318-18.074,26.828-17.271c4.222,0.616,18.57,23.517,20.21,32.258
		c0.987,5.261,0.448,6.25-7.103,13.04c-12.24,11.005-8.384,13.448-24.357,31.426c-10.563,11.887-20.99,27.037-22.986,33.399
		c-0.617,1.968-2.212,4.482-3.544,5.587c-3.792,3.146-0.225,6.41-7.303,12.879c-7.027,6.424-10.204,18.52-15.235,24.981
		c-1.691,2.173-3.076,5.67-3.076,7.772c0,2.101-0.685,4.244-1.523,4.762c-2.842,1.756-9.63,15.423-10.825,21.794
		c-0.655,3.486-2.244,8.377-3.532,10.869c-3.47,6.709-1.528,12.28-4.031,13.827c-22.465,13.883-24.825,173.6-7.251,192.231
		c4.982,5.281,5.445,6.584,4.585,12.861c-4.241,30.931,24.01,21.415,14.076,43.216c-2.658,5.835,4.662,18.182,13.144,22.17
		c5.527,2.598,6.216,3.649,7.03,10.726c1.101,9.566,8.661,18.245,18.846,21.635c6.261,2.084,6.832,2.785,7.744,9.5
		c1.489,10.941,15.726,21.201,22.787,21.803c4.826,0.412,6.045,1.31,7.08,5.211c1.394,5.252,3.611,7.312,15.285,14.206
		c17.455,10.307,17.283-3.549,24,9.459c5.576,10.799,17.899,15.68,27.74,10.987l5.509-2.627
		c16.436,14.042,27.353,24.941,39.618,14.621c6.424-5.405,11.123-5.272,14.645,0.414c7.622,12.307,20.092,9.544,27.486,4.52
		c5.695-3.87,6.549-4.011,11.567-1.914c2.981,1.246,6.442,3.499,7.692,5.007c3.52,4.244,17.479,3.516,27.548-1.437
		c8.756-4.307,18.085-5.354,20.007-2.244c2.006,3.244,16.784,0.261,29.861-6.029c10.615-5.106,13.424-5.801,19.668-4.864
		c15.978,2.396,34.26-11.03,48.531-13.987c13.494-2.796,35.349-19.338,44.888-21.067c8.054-1.46,17.445-6.315,21.2-10.96
		c4.912-6.076,24.076-19.507,27.833-19.507c5.826,0,15.812-7.867,15.812-12.457c0-7.585,13.083-7.196,19.844-18.133
		c3.001-4.856,4.588-5.857,9.279-5.857c10.234,0,20.847-12.876,26.629-32.306c1.287-4.326,2.3-5.003,7.808-5.222
		c7.599-0.302,15.247-6.803,16.91-14.374c0.609-2.776,2.492-6.213,4.183-7.636c4.542-3.824,6.107-14.974,9.78-16.662
		c8.079-3.716,15.284-8.676,15.574-18.498c0.372-12.278,10.789-2.218,10.909-21.645c0.022-6.957,0.562-8.104,4.849-10.322
		c13.062-6.755,16.714-27.705,16.714-34.435c0-4.513,1.537-7.244,7.455-13.247c7.179-7.28,7.455-7.936,7.455-17.559
		c0-21.924,10.628-13.06,10.926-42.566c0.129-12.54,0.864-16.682,4.138-23.34c4.642-9.44,5.219-22.043,1.561-34.113
		C1971.656,1018.765,1971.675,1018.666,1976.322,1014.36z M1327.942,434.414c0.079-1.93,0.47-2.323,1-1.001h0.002
		C1330.103,436.319,1327.768,438.673,1327.942,434.414z M250.59,1416.93c1.441,1.442-8.2,9.079-22.266,22.592v0
		c-5.601,5.38-10.633,9.781-11.183,9.781c-2.767,0,2.641-21.7,6.118-24.552C226.345,1422.221,249.309,1415.649,250.59,1416.93z
		 M259.573,1419.175c4.089,4.089,0.623,30.25-7.173,54.149c-4.165,12.768-4.375,14.405-1.952,15.261
		c1.101,0.389,3.068-1.848,4.373-4.971c2.899-6.938,19.414-20.346,26.368-26.33c2.44,2.44,4.304,4.303,6.744,6.744
		c-7.932,26.665-7.277,27.088-14.6,30.57c-3.527,1.677-10.405,3.461-15.284,3.964c-4.879,0.504-9.266,1.555-9.748,2.336l0-0.001
		c-1.02,1.65-7.974,1.607-13.936-0.087c-4.053-1.151-3.988-1.275,3.056-5.753c3.959-2.517,6.759-5.015,6.223-5.551
		c-1.426-1.425-6.072,4.528-9.062,4.528c-1.104,0-4.171,1.599-6.815,3.554c-4.356,3.221-5.321,3.347-10.287,1.347
		c-10.925-4.4-12.877-6.391-11.853-12.087c1.736-9.658,5.993-23.43,8.358-27.043
		C216.031,1456.679,256.941,1416.543,259.573,1419.175z M1409.82,1041.727c-22.441,3.697-24.499,9.004-8.685-20.192
		C1493.952,1033.559,1480.507,1030.083,1409.82,1041.727z M1393.252,1125.369L1393.252,1125.369
		c-29.191,8.192-27.143,4.834-23.195-17.466C1462.01,1106.97,1465.368,1105.13,1393.252,1125.369z M1634.995,1203.441
		c0.728-3.88,0.31-6.384-1.343-8.036c-3.537-3.537-4.303-12.391-0.89-10.281c0.971,0.601,1.336,2.231,0.8,3.621
		c-1.253,3.264,1.936,7.078,5.917,7.078c4.693,0,1.823,4.97,5.339,4.97c3.307,0,7.115,6.627,10.552,6.627
		c1.499,0,1.884,1.076,1.302,1.657c-1.311,2.12-3.752,1.924-9.939-0.801C1637.37,1204.153,1632.878,1214.724,1634.995,1203.441z
		 M1514.027,1073.702L1514.027,1073.702c-0.632,1.507-17.286,16.806-17.17,11.653c0.085-4.416,4.191-22.879,5.592-25.146
		C1503.979,1057.732,1515.228,1070.84,1514.027,1073.702z M1549.4,1089.677L1549.4,1089.677c3.418,1.804,5.094,3.281,3.727,3.281
		c-4.17,0.002-15.704-7.422-16.301-10.494c-0.477-2.451-0.036-2.608,2.899-1.037
		C1545.274,1084.397,1540.192,1084.816,1549.4,1089.677z M1536.56,1096.417c-2.213,0-2.204-3.847,0-2.485
		C1538.968,1095.42,1538.486,1096.417,1536.56,1096.417z M1500.738,1153.161c2.138,6.698,8.416,0.401,4.115-4.887
		c-3.824-4.702,1.953-0.497,4.351-0.497c1.229,0,0.489,5.53-8.109,11.552c1.43,1.332,7.3,6.453,7.3,8.19l0.001,0
		c0,3.227-4.165,4.825-7.059,2.709c-2.983-2.182-9.509-18.903-9.509-24.367C1491.828,1138.785,1497.674,1143.575,1500.738,1153.161z
		 M1525.594,1085.726c0.569,1.488,0.619,3.385,0.105,4.213h0.001c-1.191,1.927-12.415,3.277-4.254-4.106
		C1524.303,1083.249,1524.639,1083.24,1525.594,1085.726z M1556.44,1158.545c2.156-1.333,2.227,1.937,0,3.313
		C1554.284,1163.192,1554.214,1159.921,1556.44,1158.545z M1513.613,1177.68c1.407-4.22,5.585-0.094,1.325,1.325
		C1513.845,1179.37,1513.248,1178.774,1513.613,1177.68z M1553.401,1195.636c-3.773-1.257,5.732-14.597,4.042-19.008
		c-2.303-6.005,8.77-17.77,6.387-5.066c-0.853,4.547-0.254,6.414,3.282,10.229c6.243,6.739,1.489,8.278-1.383,5.893
		c-6.659-5.528-14.511,9.38-3.902,8.654c5.497-0.376,5.477,0.932,2.484,4.924
		C1560.472,1206.377,1559.142,1197.549,1553.401,1195.636z M1574.664,1191.68c0-2.772,4.213-3.394,5.783-0.854
		c1.865,3.017,18.16,0.622,20.34,6.446c0.554,1.481,1.901,3.438,2.99,4.349c3.541,2.96,3.912,10.711,0.599,12.484l0-0.001
		c-4.59,2.455-4.86,2.126-4.86-5.857c0-7.146-0.202-7.455-4.873-7.455c-2.68,0-5.374-0.81-5.986-1.801
		c-1.778-2.875-7.081,1.174-8.473-2.469C1578.811,1192.942,1574.664,1195.335,1574.664,1191.68z M1485.552,1168.557
		c10.441,13.273-5.061,39.639-16.025,43.807c-5.958,2.265-1.199,3.643-10.84,14.75c-0.603,0.695-35.708,42.622-36.995,44.291h0.001
		c-1.671,2.167-3.535,3.905-4.142,3.866c-4.047-0.268-13.967-7.464-15.417-11.185c-4.012-10.289-7.445-16.255-11.012-19.144
		c-3.678-2.978-13.609-22.574-13.609-26.854c0-2.16,62.681-65.579,68.754-69.565c4.061-2.665,20.038-8.429,25.879-10.614
		C1478.872,1154.899,1481.184,1163.003,1485.552,1168.557z M526.761,603.896c-6.305-13.245-2.862-12.384-0.895-7.215
		c6.427,16.907,11.118-20.69,8.887,1.058l-0.001,0C533.095,613.892,531.943,614.779,526.761,603.896z M552.062,584.785
		c2.818-0.402,3.71,0.295,3.71,2.899c0,2.579-1.057,3.429-4.263,3.429C546.071,591.113,546.555,585.571,552.062,584.785z
		 M1217.49,423.369L1217.49,423.369c2.278,4.026-1.579,1.936-6.935-3.758C1201.125,409.584,1212.086,413.825,1217.49,423.369z
		 M1225.9,470.169c-3.686-5.965,9.354-17.658,15.424-13.829c4.108,2.579,4.103,4.854,0,9.385h-0.02
		C1237.062,470.408,1227.715,473.105,1225.9,470.169z M698.204,981.219c-12.765-12.887-12.192-13.956,7.503-14.017
		c12.87-0.04,42.812-5.05,48.559-8.125c1.563-0.837,8.708-12.959,15.878-26.939c11.867-23.138,14.252-26.613,26.594-38.76
		c11.805-11.617,13.323-12.661,11.745-8.07c-0.997,2.9-6.645,10.023-12.551,15.828c-16.125,15.851-32.134,52.622-31.161,53.6
		c0.594,0.596,8.049,1.251,16.567,1.456c12.48,0.299,17.002,1.131,23.278,4.283c7.822,3.935,10.814,7.432,7.877,9.248
		c-0.871,0.538-1.584,2.426-1.584,4.195c0,4.959-7.268,4.185-10.761-1.147c-2.758-4.209-3.258-4.326-14.19-3.31
		c-12.16,1.13-41.489,9.454-61.949,17.581l0.001,0c-6.925,2.751-13.153,5.001-13.839,5.001
		C709.486,992.043,704.101,987.172,698.204,981.219z M646.893,932.953c-2.233-2.318-1.982-2.488,2.485-1.683
		c9.928,1.79,25.88,5.749,26.776,6.645c1.221,1.221-10.923,6.121-13.31,5.94C660.697,943.692,650.575,936.774,646.893,932.953z
		 M570.385,580.809c1.91-1.91,6.925-0.624,6.925,1.776h-0.001c0,2.197-6.439,3.547-7.641,1.602
		C569.109,583.281,569.431,581.761,570.385,580.809z M970.288,968.517c-5.581-5.582,2.225-5.547,3.899-2.838
		C975.894,968.44,972.605,970.833,970.288,968.517z M610.053,1236.49c-1.295-6.778,3.005-2.195,16.958-10.821
		c25.684-15.882,64.632-32.387,3.313,1.972c-3.189,1.787-8.55,5.424-11.914,8.081v0
		C610.727,1241.792,611.062,1241.793,610.053,1236.49z M599.984,929.605c4.72-34.449-3.125-11.05,27.643-43.522
		c60.335,2.879,43.833,1.689,63.17,20.638c-2.138,0.177-12.425,0.626-12.425,2.559c0,0.883-4.205,1.092-9.919,0.495
		c-11.588-1.211-21.46,1.345-43.207,11.191l0.001,0C608.885,928.374,604.662,928.669,599.984,929.605z M805.94,1162.687
		c0,3.835-1.929,5.193-4.83,3.4c-1.719-1.063-1.37-2.456,1.634-6.518c7.244-9.799,7.829-2.864,4.853-1.024
		C806.685,1159.108,805.939,1160.972,805.94,1162.687L805.94,1162.687z M817.667,1165.034c0.08-1.93,0.471-2.323,1-1.001h0.002
		C819.828,1166.94,817.493,1169.293,817.667,1165.034z M992.037,344.11c5.563-0.901,6.522-0.561,7.785,2.76
		c2.078,5.466,15.529,11.105,24.254,10.168c5.871-0.631,7.036-0.241,7.779,2.6c2.022,7.729,16.411-3.369,31.239,6.033
		c13.438,8.523,15.902,22.091,44.925,43.133c12.873,9.331,8.557,3.449,9.389,42.749c0.551,0.559,46.388,45.585,46.388,46.344
		c0,2.139-33.516,12.867-46.689,18.012c-7.336,2.864-7.926,2.875-10.9,0.183c-1.729-1.565-4.091-2.845-5.248-2.845
		c-5.514,0-17.693-12.585-31.623,5.003l-0.004,0c-5.843,7.377-10.14,8.793-8.698,2.867c2.351-9.659,15.596-13.439-13.642-10.759
		c7.796-6.238,12.269-9.139,5.798-11.193c-3.875-1.23-4.435-6.671-0.829-8.055c6.54-2.509-2.485-12.122-2.485-7.416
		c0,2.449-8.996,9.552-10.508,5.612c-0.503-1.311-3.598-2.888-6.877-3.503c-5.563-1.044-5.786-1.314-3.329-4.029
		c4.897-5.41-3.377-2.37-1.445-7.399c2.001-5.211-8.875,0.573-6.805-5.946c2.445-7.702-8.835,2.548-7.799-7.175
		c1.169-10.922-7.886,4.779-8.337-11.234c-0.351-12.348,9.254-2.319,1.277-18.262c-32.601-65.137-34.69-59.399-26.273-66.639
		C989.485,356.427,979.524,346.136,992.037,344.11z M898.717,1030.841c0-1,5.415-1.741,4.658,2.187l-0.001,0
		c-0.305,1.584-1.959,3.151-3.676,3.481C894.913,1037.431,898.717,1033.417,898.717,1030.841z M963.33,772.87
		c-9.278,4.554-11.108,4.634-12.406,0.545c-1.634-5.148,1.811-9.48,10.044-12.624c6.503-2.484,7.841-2.565,9.141-0.558
		C973.154,764.934,970.887,769.16,963.33,772.87L963.33,772.87z M946.762,793.234c2.109,0,2.223,2.768,0,4.142
		C944.573,798.729,944.551,793.234,946.762,793.234z M892.21,888.721c-5.049,1.01-5.22,0.87-4.149-3.395
		c2.247-8.953-7.568,1.351-7.568-5.21c0-3.124-2.303-1.852-2.641,1.456c-0.108,1.075-0.744,3.557-1.414,5.517l-0.001,0
		c-1.24,3.631-8.557,6.273-10.166,3.67c-0.486-0.789-0.382-1.435,0.232-1.435c0.614,0-0.111-1.873-1.611-4.163
		c-3.039-4.638-3.803-4.046,13.115-10.17c6.252-2.263,6.756-2.205,8.914,1.018c2.161,3.228,2.405,3.255,4.422,0.496
		c1.685-2.303,5.139-3.044,16.352-3.504c21.967-0.903,8.477,0.401,19.6,9.922l5.384,4.609
		C925.808,887.56,898.809,887.402,892.21,888.721z M943.449,880.184c0-5.744-12.397,1.904-15.187-5.641
		c-1.844-4.984-1.263-5.483,6.624-5.69C954.991,868.326,943.449,888.765,943.449,880.184z M887.85,1003.64
		c-1,0-1.29-3.313,1.024-3.313S888.85,1003.64,887.85,1003.64z M889.19,989.376c-1.263-0.563-2.071-4.2-2.071-9.325
		c0-20.727,33.135-30.824,33.135-14.498c0,7.645-3.982,15.62-9.904,19.838v0C905.215,989.046,893.431,991.266,889.19,989.376z
		 M953.529,857.178c2.097-6.067,3.135-6.98,9.801-8.614c5.669-1.39,7.738-1.353,8.636,0.156c1.922,3.23-1.879,13.946-5.818,16.401v0
		c-2.005,1.25-5.712,2.752-8.238,3.339C951.857,869.865,950.421,866.168,953.529,857.178z M1077.204,660.489
		c1.124-1.132,2.462-1.642,2.97-1.131C1081.343,660.528,1073.931,663.787,1077.204,660.489z M1123.206,619.724l-4.97,2.187v0.003
		c-9.596,4.221-29.568,0.741-11.528-4.31C1115.205,615.22,1115.926,616.293,1123.206,619.724z M697.009,748.808
		c1.594-0.302,2.862,0.064,2.862,0.815l-0.001,0c-0.044,1.687-5.249,7.846-6.698,9.648
		C693.6,754.761,693.541,749.466,697.009,748.808z M953.177,655.803c19.623-14.766,18.386-14.045,20.48-11.951
		c7.42,7.421-69.377,47.426-108.605,60.594h0.001c-17.406,5.843-16.771,3.998-14.383,3.126
		C896.889,690.691,927.071,675.449,953.177,655.803z M812.335,728.606L812.335,728.606c-20.524,10.951-10.307,1.113,7.688-7.69
		C841.139,710.587,819.427,724.822,812.335,728.606z M938.479,687.893c0,1.443-1.18,2.623-2.623,2.623
		C929.926,690.516,938.479,681.949,938.479,687.893z M728.529,597.739c-4.458,0-9.365,0.932-10.905,2.071
		c-2.981,2.205-16.057,27.108-16.057,30.58c0,2.959,8.284,6.793,8.284,8.958l-0.001,0c0,2.289-20.542,1.731-23.793-0.646
		c-2.742-2.006-2.73-2.822,0.243-16.162c5.753-25.818,13.468-35.885,26.053-33.998C733.904,591.775,744.396,597.739,728.529,597.739
		z M950.191,541.476c16.056,9.379,33.095,29.448,49.076,40.031c5.748,3.807,10.452,7.436,10.452,8.065
		c0,1.253-51.015,58.141-178.673,109.854c-14.895,6.034-27.465,10.971-27.935,10.971c-0.469,0-0.291-2.796,0.398-6.213
		c0.69-3.417,1.093-15.091,0.9-25.943c-0.39-21.977-2.964-30.673-14.75-49.853c-14.447-23.508-74.133-47.615-72.779-46.261
		c-0.999-0.999,5.979-15.161,9.05-18.369c1.754-1.832,8.226-6.276,14.381-9.876c7.059-4.128,16.294-11.921,25.012-21.106
		c24.315-25.621,2.801,2.358,48.072-44.019c46.511-4.036,43.385-11.287,55.225-7.028
		C907.919,495.868,921.881,524.938,950.191,541.476z M720.617,784.122c0.566,0.479,7.456,6.142,7.456,6.883h-0.001
		C728.073,793.29,724.055,788.182,720.617,784.122z M713.047,764.215c3.065,0.673,6.321,3.385,9.095,7.578h0.001
		c3.757,5.678,3.94,6.515,1.397,6.424C713.917,777.872,696.458,760.571,713.047,764.215z M1108.634,654.684
		c0.411,0.411-2.208,8.828-5.822,18.704c-35.993,98.362-23.468,97.354-45.026,108.237c-16.203,8.179-22.946,24.07-23.613,25.071
		c-1.534,4.138-22.966,2.947-23.945,0.389c-2.549-6.643,6.574-5.078,14.503-6.665c11.693-2.339-19.517-5.882-18.834-10.714
		c0.761-5.396,4.441-17.352,5.924-19.252c3.499-4.478,10.644,0.937,8.937-5.799c-2.132-8.41-7.67-40.325-11.904-50.461
		c-2.825-6.762-2.522-7.096,17.894-19.754C1055.07,676.88,1106.07,652.119,1108.634,654.684z M1163.161,584.487
		c3.237,0,1.288,3.313-2.047,3.313C1157.877,587.8,1159.826,584.487,1163.161,584.487z M994.808,705.325l-0.003,0
		c0,2.562-6.284,6.967-7.388,5.18C984.377,705.559,994.808,703.607,994.808,705.325z M835.811,979.189
		c2.748,1.703,3.626,1.664,4.792-0.21c2.304-3.704,5.013,4.312,3.935,5.39v0c-2.123,2.123-8.777,1.033-8.777-1.439
		c0-3.685-3.314-1.556-3.314-4.156C832.447,977.788,833.823,977.957,835.811,979.189z M1038.108,881.921
		c1.306-1.305,6.402,0.774,6.402,2.611C1044.51,888.206,1036.633,883.402,1038.108,881.921z M1162.14,596.273
		c0-1.943,8.313-7.341,9.49-6.163C1172.883,591.364,1162.14,600.922,1162.14,596.273z M1132.347,596.9
		c-12.485,4.893-21.168,5.579-10.797,0.854C1137.24,590.605,1158.727,586.561,1132.347,596.9z M1137.26,370.768
		c0.743,0,5.132,2.544,9.753,5.654c14.167,9.535,26.885,9.787,15.539,13.895l0.001,0c-9.877,3.575-10.831,5.287-9.435-0.272
		c1.525-6.077-3.045-7.526-9.256-2.933c-2.631,1.945-5.819,3.536-7.084,3.536c-1.265,0-8.915-6.323-16.998-14.05
		C1084.404,342.782,1132.169,370.768,1137.26,370.768z M998.121,443.586c-3.92-0.043,3.439-5.009,5.391-3.803
		C1005.715,441.143,1001.163,443.622,998.121,443.586z M642.777,690.557c-2.432-3.936,23.036-0.06,10.138,4.844
		c-9.63,3.661-3.165,18.216-15.462,18.284c-8.179,0.057,5.365-18.199,10.336-18.199c1.33,0,2.418-1.048,2.418-2.33
		C650.207,689.425,644.676,693.631,642.777,690.557z M905.344,1024.625c0-10.206,6.627-3.428,6.627,0.755
		C911.971,1029.325,905.344,1030.221,905.344,1024.625z M1115.251,592.139c-16.951,5.467-22.56,9.239-17.963,12.08
		c2.078,1.284-3.387,5.936-12.519,10.659v0c-17.901,9.256,1.588-13.434-20.444-2.195c-25.33,12.92,30.226-27.423,95.742-48.819
		c18.358-5.995,8.792-10.064-40.802,8.353c-41.012,15.231,5.747-11.915,19.844-14.918c6.132-1.306,30.373-18.198,31.052-21.639
		c0.646-3.266-1.032-2.644-13.822-0.779c17.688-8.042,59.02-5.474,63.507-2.021l3.865,2.974
		C1160.223,583.769,1203.973,563.527,1115.251,592.139z M614.587,714.937c-3.893,8.222-5.239,8.662-7.66,2.501
		c-8.034-20.455-25.042-45.092-15.244-46.487c5.184-0.738,38.633,9.526,44.027,13.51c5.564,4.11,5.574,4.408,0.414,12.012
		c-2.278,3.357-4.142,8.285-4.142,10.951c0,6.608-4.98,18.075-7.366,5.355C623.13,704.851,618.935,705.754,614.587,714.937z
		 M642.264,726.497c16.475,1.924,27.723,4.26,26.902,5.588h-0.001c-0.512,0.828-2.191,1.411-3.732,1.296
		C628.579,730.618,633.192,725.438,642.264,726.497z M732.829,941.617c-3.699,3.474-4.693,3.913-3.467,1.534
		C734.286,933.601,744.061,931.075,732.829,941.617z M773.607,901.92l0.002,0c-14.077,14.971-26.365,18.397,4.565-14.961
		c31.032-33.467,21.524-26.208,34.547-55.619c6.996-15.799,10.178-20.848,18.638-29.571
		c21.257-21.918,107.947-91.514,124.849-100.232c4.996-2.577,17.063-3.844,17.063-1.791c0,0-16.423,24.182-16.531,33.23
		c-0.06,5.8-5.502,5.524-4.043,11.337c0.767,3.056-0.923,5.185-9.542,12.015c-11.978,9.493-17.711,12.051-17.341,7.734
		c0.408-4.727-3.739-4.483-8.484,0.499c-2.491,2.615-12.693,11.441-22.67,19.614c-53.304,43.659-53.806,45.796-1.326,24.458
		c2.487-1.012,3.866,6.129-1.657,6.164c-9.247,0.06-43.019,16.543-50.572,16.543c-2.103,0-4.262,1.291-4.848,2.899
		C834.886,837.994,793.966,880.269,773.607,901.92z M836.039,846.25c5.834,0-7.799,14.056-14.995,24.437l0.001,0
		c-3.825,5.516-11.591,11.998,3.3-9.526C830.019,852.96,835.281,846.25,836.039,846.25z M1031.502,954.16
		c5.4-8.646,7.502,2.464,15.939,0.346c3.75-0.941,6.912,1.238,6.984,4.816h-0.016c0.035,1.714-20.162,1.522-22.907-0.218
		C1029.663,957.929,1029.66,957.109,1031.502,954.16z M644.57,805.581c13.073,2.452,1.538,16.777,28.003,26.517
		c25.302,9.311,37.236,28.993,37.236,31.961l0.001,0c0.129,6.475-26.849-6.099-42.304-6.173c-15.23-0.072-13.036-8.7-25.837,0.212
		c-4.809,3.348-10.559,4.011-12.17,1.405c-1.425-2.305-10.146-2.073-14.064,0.373c-4.563,2.85-6.048,0.545-7.195-11.164
		c-1.054-10.77-1.296-10.11,10.172-27.688C626.43,808.735,634.858,803.759,644.57,805.581z M684.169,1197.428
		c-2.113,0,2.717-3.212,4.97-3.212C691.249,1194.215,686.425,1197.428,684.169,1197.428z M672.474,1203.224L672.474,1203.224
		c-4.319,3.266-7.527,3.186-3.314,0C673.478,1199.958,676.688,1200.037,672.474,1203.224z M949.387,995.064
		c-11.639,11.383-18.464,16.86-21.008,16.86v0c-6.23,0-10.233,8.262-12.287,4.937c-2.101-3.398,2.626-9.42,10.558-13.454
		c15.641-7.954,1.767-12.253,14.537-13.696c5.134-0.58,17.173-10.657,17.173-14.374c0-3.992,2.01-4.047,5.533-0.153
		C966.48,978.042,965.703,979.107,949.387,995.064z M1234.803,523.098c-14.337-14.59-13.162-13.031-38.702-20.622
		c-20.665-40.706-4.605-18.46-17.494-44.098c-6.474-12.874-6.702-13.804-3.901-15.852c10.931-7.992,17.51,9.345,53.354,59.123
		c21.632,30.04,23.542,32.791,23.542,33.896l0.001,0C1251.602,538.604,1245.856,534.347,1234.803,523.098z M911.873,95.749
		c-1.876,0-2.578-3.313,1.023-3.313C916.431,92.436,913.796,95.749,911.873,95.749z M620.474,966.218L620.474,966.218
		c-8.462,8.81-16.613,6.96-11.567-2.625c4.86-9.233,24.776-27.941,29.604-27.809c1.421,0.039,5.853,2.941,9.848,6.45
		C665.052,956.893,640.636,945.23,620.474,966.218z M642.75,1252.151c2.646,0,6.14,3.313,0,3.313
		C636.611,1255.464,640.103,1252.151,642.75,1252.151z M1290.536,630.777c-16.067-3.561-15.739-2.103-15.739-7.272
		c0-5.931-9.37-30.844-14.852-39.488c-5.719-9.018-4.434-11.129,6.772-11.129c5.84,0,9.022,1.007,12.544,3.971
		c4.258,3.583,26.684,44.423,29.433,53.601v0C1310.034,634.93,1309.33,634.942,1290.536,630.777z M1282.251,546.381
		c1.35,2.182-5.798,2.206-5.798,0C1276.453,544.26,1280.875,544.156,1282.251,546.381z M1353.704,752.736L1353.704,752.736
		c-5.349,3.139-10,5.706-10.332,5.706c-0.333,0-1.706-2.634-3.051-5.852c-5.898-14.118-57.502-98.522-52.866-98.522
		c2.552,0,38.569,30.264,3.26-8.284c12.903,0,26.436,6.985,29.225,9.497c3.859,3.476,18.459,31.176,31.394,53.24
		c12.805,21.842,5.849,21.879,13.852,29.05C1370.572,742.398,1372.625,741.636,1353.704,752.736z M969.769,241.65
		c1.826,0.636,15.098,4.084,15.098,14.435l-0.001,0c0,3.705-6.908,9.68-9.589,12.249C971.619,256.43,971.555,254.874,969.769,241.65
		z M310.687,1480.721c-5.849,3.13-11.355,4.831-12.367,3.82c-1.796-1.796-1.047-12.044,0.88-12.044
		c3.713,0,14.689,3.866,14.689,5.174C313.888,1478.406,312.448,1479.779,310.687,1480.721L310.687,1480.721z M332.009,1267.372
		c2.892-0.964,1.43,3.389-1.45,4.349C327.667,1272.685,329.129,1268.332,332.009,1267.372z M404.119,1265.014
		c9.168,0.487,22.428,6.118,22.428,9.524c0,1.215-2.294,4.504-5.098,7.308v0c-6.29,6.29-8.043,6.414-7.64,0.543
		c0.256-3.734-0.434-4.635-3.83-5.003c-14.462-1.566-15.136-1.913-14.595-7.518C395.892,1264.629,395.978,1264.581,404.119,1265.014
		z M426.324,1255.726c16.094-4.821,15.045-0.593,9.851,6.432l0,0c-4.307,5.825-5.619,6.09-6.849,1.385
		c-0.741-2.831-1.749-3.31-5.164-2.453C417.079,1262.867,419.083,1257.896,426.324,1255.726z M428.203,1285.379
		c0-2.875,3.034-6.72,5.302-6.72c2.047,0,0.217,6.627,3.81,6.627c3.782,0,0.691,5.054,5.909,13.897
		c14.568,24.694-7.743,50.707-3.99,23.341c1.512-11.038-1.629-4.644-3.261-10.86c-2.263-8.649-30.514,6.246-13.681-15.8
		C425.543,1291.607,428.203,1286.888,428.203,1285.379z M400.816,1287.026L400.816,1287.026c-1.568,2.537-9.061,1.864-9.061-0.814
		C391.755,1278.729,402.258,1284.692,400.816,1287.026z M363.224,1441.291L363.224,1441.291c-0.354,1.061-2.27,3.01-4.259,4.33
		c-3.192,2.119-3.733,2.097-4.612-0.193C351.332,1437.56,364.108,1438.638,363.224,1441.291z M462.667,1285.286L462.667,1285.286
		c-1.826,8.656-3.835,16.676-4.467,17.821c-1.649,2.99-5.146-0.834-5.146-5.629c0-5.618-3.313-3.298-3.313-11.138
		c0-6.435-4.789-10.605-11.64-18.085c10.776-18.389,10.708-18.281,30.165-21.416
		C467.405,1255.412,466.564,1266.798,462.667,1285.286z M301.312,1445.088c2.289-3.131,2.466-3.118,9.217,0.676
		c7.199,4.047,22.868,5.636,28.625,2.903c2.25-1.067,2.899-0.639,2.899,1.912c0,11.381-30.403,8.205-35.62,6.24
		c-3.645-1.373-6.814-2.51-7.041-2.522C298.01,1454.215,299.355,1447.764,301.312,1445.088z M293.215,1446.939
		c-2.121,2.803-2.424,2.85-2.468,0.391C290.653,1442.308,298.348,1440.154,293.215,1446.939z M1361.676,1139.493
		c-1,0-1.29-3.313,1.024-3.313C1365.014,1136.179,1362.676,1139.493,1361.676,1139.493z M803.24,177.716
		c3.584-9.34,5.377,8.858,8.02,12.053h-0.014c1.192,1.427,1.188,2.071,0,2.071C808.613,191.84,802.177,180.486,803.24,177.716z
		 M618.941,753.564l7.762,1.028c9.331,1.236,20.224,8.965,20.169,14.344c-0.028,4.856-9.058,10.472-19.215,11.951v0
		c-4.455,0.648-10.056,2.171-12.447,3.383C600.97,791.479,612.314,766.825,618.941,753.564z M266.216,1443.076
		c1.005,0.335,3.554,2.848,5.664,5.584l0,0l3.836,4.975c-5.105,5.028-15.855,16.276-17.212,14.081
		C256.904,1465.126,264.033,1442.348,266.216,1443.076z M278.831,1431.078c-5.138-10.826-5.414-20.594-0.467-16.489
		c1.63,1.353,4.17,0.946,9.89-1.584c7.347-3.25,7.876-3.274,11.644-0.535c4.837,3.516,5.163,7.956,0.757,10.314
		c-1.812,0.97-3.736,3.524-4.276,5.675h0c-0.54,2.152-2.971,5.807-5.404,8.123C285.788,1441.522,283.238,1440.366,278.831,1431.078z
		 M290.694,1485.751L290.694,1485.751c0,0.911-0.79,1.657-1.755,1.657C286.03,1487.408,290.694,1481.331,290.694,1485.751z
		 M1466.977,1128.098c0-2.16,4.279-5.312,5.522-4.069C1474.612,1126.143,1466.977,1132.375,1466.977,1128.098z M1438.101,1146.12
		c-2.16,0-22.505,10.292-23.488,11.882c-1.724,2.788,10.945-2.039,10.945,1.242c0,1.043-6.255,8.022-13.9,15.509l-0.001,0
		c-22.113,21.656-35.802,34.002-35.802,32.288c0-0.872-1.491-3.481-3.313-5.798c-5.609-7.131-1.753-19.769-5.114-23.128
		c-2.098-2.096-6.099-36.967,0.648-36.967c2.146,0,25.424-7.169,70.508-21.715c24.498-7.904,31.707-8.817,31.707-4.014
		C1470.29,1117.588,1440.375,1146.12,1438.101,1146.12z M1370.989,1101.077c-2.886,0.964-1.433-3.388,1.45-4.349
		C1375.325,1095.763,1373.873,1100.115,1370.989,1101.077z M850.834,78.348c6.253,1.895,7.125,3.52,4.845,9.025v0
		c-4.832,11.665-5.051-0.475-7.628-7.14C847.026,77.581,847.42,77.314,850.834,78.348z M234.365,1285.188
		c0,1.919-3.313,4.568-3.313,1.024C231.052,1282.611,234.365,1283.314,234.365,1285.188z M1698.54,844.959l0.002,0
		c-20.702,28.466-3.668-7.986-10.64-13.154c-6.732-4.989,13.523-12.514,21.795-6.466
		C1714.265,828.682,1712.514,825.745,1698.54,844.959z M1718.109,825.717c3.702-1.421,4.006-1.309,4.006,1.479
		C1722.115,832.092,1710.268,828.726,1718.109,825.717z M1855.892,1047.471c7.568,2.904-8.42,26.84-6.842,29.381h0.001
		c1.048,1.695-2.68,2.174-2.68-0.941c0-9.032-32.268-7.79-31.012-11.544C1816.148,1062,1853.346,1046.495,1855.892,1047.471z
		 M1807.319,1072.289c7.256,2.11,39.119,4.611,38.969,14.188c-0.052,6.041-4.672,10.794-4.829,15.3
		c-0.032,1.581-2.359,6.614-5.171,11.183h0.001c-9.632,15.652-6.902,4.542-37.043-0.754c-3.594-0.632-10.093-2.951-14.441-5.155
		c-16.671-8.447-40.244-8.017-24.169-23.429c4.095-3.926,9.262-6.211,21.579-9.543
		C1797.866,1069.845,1798.706,1069.785,1807.319,1072.289z M1735.289,1053.783c9.964,5.423,9.781,5.436,15.79-1.124
		c10.052-10.974,11.782-0.379,5.826,1.512c-2.128,0.676-3.313,2.507-3.313,5.12c0,3.862,0.193,3.942,3.803,1.577
		c6.238-4.088,17.694,0.609,23.948,0.749c0.226,0.005,0.414,1.421,0.414,3.146c0,7.893-21.537,4.535-21.537,9.503
		c0,3.247-2.316,2.806-5.864-1.115c-6.146-6.791-15.718,0.243-10.148,6.398c2.643,2.92,2.662,3.298,0.21,4.239l-0.003,0
		c-10.513,4.034-9.054-0.487-9.801-23.43C1734.486,1056.469,1734.792,1053.511,1735.289,1053.783z M1745.308,1090.813
		c0-5.329,0.47-5.992,4.253-5.992c3.682,0,4.083,0.5,2.984,3.728c-2.744,8.063,0.353,16.951,5.252,15.071
		c4.741-1.819,66.773,17.617,66.981,28.936c0.077,5.532-7.651,21.013-13.315,26.678c-2.67,2.671-4.856,5.995-4.856,7.386
		c0,3.697-2.619,2.165-7.455,11.736c-1.822,3.606-8.224,11.677-14.224,17.936c-12.402,12.936-10.623,11.433-23.415,9.034
		c4.572,6.977,8.828,10.823-4.848,22.426c-10.733,9.108-15.013,14.459-17.719,14.459c-1.154,0-6.269,4.507-11.37,10.016
		c-5.101,5.509-12.553,11.938-16.561,14.287c-7.055,4.134-7.363,4.172-9.639,1.167c-2.21-2.922-2.349-2.834-2.404,1.489
		c-0.091,7.883-30.387,23.668-37.579,26.142c-23.499,8.084-0.019,10.42-91.699,27.373l-0.004-0.002
		c-15.68,2.899-29.316,3.05-30.221,0.334c-0.372-1.116,0.268-3.911,1.422-6.213c37.704-75.214-5.992-4.068-5.992,2.444
		c0,1.423-1.181,3.041-2.625,3.595c-3.859,1.481-38.838-2.4-41.493-4.603c-4.459-3.7-0.282-13.35-4.577-7.691
		c-4.914,6.474-26.453,1.616-29.393-6.629c-1.02-2.861-0.28-4.984,3.173-9.112c15.032-17.964,10.985-25.299-5.502,2.904
		c-1.319,2.256-2.483,2.573-4.97,1.355c-30.023-14.705-30.221-15.16-14.815-33.933c56.506-68.857,60.423-70.741,67.068-57.716
		c1.86,3.645,4.461,6.627,5.781,6.627c1.317,0,2.03,0.958,1.582,2.13c-1.884,4.91,25.103,3.268,27.429,3.035
		c2.278-0.228,7.391,0.556,11.36,1.742c15.545,4.646,3.62-6.571,23.94-6.477c10.354,0.048,14.435-1.934,10.576-5.137
		c-1.722-1.429-3.659-1.447-7.61-0.069c-7.567,2.638-8.045,0.782-1.026-3.988c4.969-3.376,6.683-3.777,9.821-2.296
		c3.647,1.721,6.182,5.138,8.586,11.569c1.915,5.126,8.007-1.197,3.995,3.636c-3.015,3.633-0.783,5.029,4.322,2.703
		c2.964-1.35,4.976-1.442,6.365-0.29c3.247,2.696,6.018-6.252,5.727-7.478c-0.79-3.33,3.658-5.891-0.472-10.455
		c-8.069-8.916,4.303-5.82,9.867-7.955c3.495-1.341,2.648-0.013-0.471,16.431c-1.656,8.766,5.555,0.544,3.51,8.698
		c-1.32,5.26-0.804,5.207,9.205-0.952c9.359-5.759,9.347-4.96,26.079-2.869c3.125-3.815,11.284-14.693,16.114-15.616
		c4.641-0.887,9.221,1.301,9.221,4.406c0,1.21,1.239,3.224,2.753,4.474c2.507,2.071,2.673,1.672,1.856-4.454
		c-0.891-6.685-0.846-6.752,7.008-10.354c4.347-1.995,8.304-3.626,8.791-3.626c1.315,0,10.67,18.224,12.848,18.224
		c9.552,0-32.441-42.546,11.331-17.344c14.468,8.331,18.234,8.543,22.51,9.528c-11.724-12.791-27.018-18.395-33.681-22.999
		c-0.3-0.206,0.781-2.4,2.403-4.875c1.622-2.475,3.358-7.572,3.86-11.327c1.031-7.729,2.266-7.51,14.641-13.762
		c46.499,14.516,53.564,23.656,60.169,18c1.726-1.478,3.14-3.258,3.14-3.954c0-5.424-57.097-15.085-62.764-18.588
		c-2.26-1.397,4.426-19.449,8.954-24.176c4.165-4.347,5.379-8.249,2.567-8.249c-0.848,0-1.778-1.677-2.071-3.728
		c-1.269-8.925-20.457,2.443-17.227-10.428C1735.309,1086.988,1745.308,1104.248,1745.308,1090.813z M1484.734,1039.473
		c1.168,1.598,2.124,3.781,2.124,4.85c0,3.618-9.709,55.967-10.709,56.967c-1.152,1.863-1.992,1.866-29.053,0.075
		c-75.318-4.983-79.202-2.766-66.696-34.368c5.789-14.624-2.881-8.327,85.696-26.956
		C1481.786,1036.741,1482.715,1036.713,1484.734,1039.473z M1470.291,1020.506c0,3.712-44.957-9.986-54.672-10.197
		c-8.9-0.198-9.385-2.403-2.732-12.424c3.401-5.122,7.223-9.711,8.494-10.199C1423.739,986.781,1470.291,1018.02,1470.291,1020.506z
		 M1014.511,268.05c1.479,0,3.491,3.896,3.491,6.762l-0.001,0c0,1.772-2.266,2.016-3.866,0.417
		C1012.504,273.598,1012.794,268.05,1014.511,268.05z M998.535,262.752c-9.765,0.562-11.959-2.224-3.065-3.892
		C1006.862,256.722,1012.958,261.921,998.535,262.752z M830.023,71.244c3.762-0.539,9.715,5.092,11.457,10.838l-0.001,0
		c1.611,5.31-1.768,4.676-4.418-0.828c-1.52-3.156-3.456-4.556-6.303-4.556C825.74,76.697,825.1,71.948,830.023,71.244z
		 M639.438,1030.447c7.59,3.465,12.865-4.205,14.823,0.897c0.546,1.426,0.79,2.761,0.541,2.969v-0.003
		c-0.597,0.497-22.462,1.882-24.252,2.004C634.873,1029.715,635.036,1028.441,639.438,1030.447z M256.611,1263.592
		c-0.472,0.473-2.333-0.062-4.135-1.187l0,0c-2.257-1.409-4.221-1.54-6.314-0.421c-4.617,2.471-10.14-5.24-10.14-6.241
		c0-1.146,12.907-5.249,16.513-5.249C254.284,1250.494,257.945,1262.258,256.611,1263.592z M232.709,1354.04
		c2.156-1.333,2.226,1.938,0,3.313C230.553,1358.686,230.483,1355.416,232.709,1354.04z M253.64,1381.223
		c7.168-4.932,7.484-5,6.957-1.501c-0.398,2.644-2.743,4.493-8.42,6.641C242.882,1389.878,243.326,1388.32,253.64,1381.223z
		 M247.754,1396.571c5.085-2.89,9.788-5.254,10.45-5.254c0.661,0,0.974,3.109,0.694,6.91c-0.438,5.942-1.322,7.364-6.308,10.155h0
		c-8.724,4.883-26.257,11.188-27.14,9.76c-0.427-0.691-0.022-4.792,0.899-9.113C229.379,1394.826,228.78,1407.352,247.754,1396.571z
		 M196.145,1432.797c1.886-1.01,3.429-2.979,3.429-4.377c0-2.815,21.019-30.476,23.157-30.476c1.339,0,0.552,4.508-3.094,17.718
		c-2.175,7.879-3.683,7.793-19.236,15.229c15.868-2.133,16.756-4.439,10.002,17.304c-3.022,9.728-5.791,14.91-11.069,20.709v0
		c-3.871,4.254-7.903,8.271-8.96,8.926c-2.389,1.481-15.653-9.6-15.653-13.078C174.723,1460.98,192.201,1434.908,196.145,1432.797z
		 M179.773,1443.918c-0.931,1.595-3.461,5.016-5.623,7.603c-3.346,4.005-4.088,4.293-4.993,1.936
		C165.012,1442.652,183.751,1437.106,179.773,1443.918z M205.949,1279.726c-3.189-2.357-2.403-9.775,1.367-12.903
		c4.66-3.868-1.5,4.894,2.273,9.443C212.409,1279.662,209.545,1282.384,205.949,1279.726z M277.182,1207.363
		c-1.361,4.079-30.973,2.229-7.322-1.012C275.995,1205.51,277.72,1205.748,277.182,1207.363L277.182,1207.363z"/>
	<path class="st0" d="M1728.64,1221.438c-0.967-0.598-2.479-2.982-3.36-5.298c-2.02-5.312-4.869-4.289-0.569,3.694l0.002,0
		C1730.459,1230.507,1731.883,1223.443,1728.64,1221.438z"/>
	<path class="st0" d="M201.81,1359.839c-3.371,0-4.537,4.318-2.581,9.556c2.58,6.909,3.609,13.886,8.32,8.211
		C209.891,1374.784,205.064,1359.839,201.81,1359.839z"/>
	<path class="st0" d="M209.747,1356.756c2.15,1.652,4.636,2.78,5.524,2.506c1.978-0.611,4.197-10.717,3.024-13.772
		c-1.554-4.05-6.957-2.375-9.748,3.022C205.92,1353.589,205.958,1353.845,209.747,1356.756L209.747,1356.756z"/>
	<path class="st0" d="M1692.423,1233.227L1692.423,1233.227c2.458,6.195,3.842,2.76,1.825-4.531
		C1691.949,1220.382,1690.077,1227.319,1692.423,1233.227z"/>
</g>
</svg>
