<?xml version="1.0" encoding="utf-8"?>
<!-- Generator: Adobe Illustrator 26.0.2, SVG Export Plug-In . SVG Version: 6.00 Build 0)  -->
<svg version="1.1" id="Laag_1" xmlns="http://www.w3.org/2000/svg" xmlns:xlink="http://www.w3.org/1999/xlink" x="0px" y="0px"
	 viewBox="0 0 508 213" style="enable-background:new 0 0 508 213;" xml:space="preserve">
<style type="text/css">
	.st0{fill:#FFFFFF;stroke:#B2395D;stroke-width:0.7801;stroke-miterlimit:10;}
	.st1{fill:#FFFFFF;}
</style>
<g>
	<path class="st0" d="M221.36,72.78"/>
	<g>
		<g>
			<polygon class="st1" points="236.64,22.31 236.59,22.44 205.21,100.74 190.83,22.31 154.39,22.31 101.22,155.01 138.29,155.01 
				167.51,78.53 183.56,155.01 220.46,155.01 249.76,78.53 273.09,22.31 			"/>
			<polygon class="st1" points="276.73,42.18 254.43,100.77 265.81,155.01 297.37,154.79 			"/>
		</g>
		<polygon class="st1" points="405.04,22.42 367.79,22.42 335.63,57.36 323.54,22.42 286.3,22.42 308.57,86.77 299.95,96.14 
			306.14,129.88 318.74,116.18 332.18,155.01 369.42,155.01 345.81,86.77 		"/>
	</g>
</g>
<g>
	<path class="st1" d="M25.29,181.99c0,5.16-3.79,8.86-9.13,8.86H9v-17.69h7.16C21.51,173.16,25.29,176.82,25.29,181.99z
		 M20.29,181.99c0-2.62-1.75-4.37-4.37-4.37h-2.03v8.76h2.03C18.55,186.39,20.29,184.6,20.29,181.99z"/>
	<path class="st1" d="M28.62,182c0-5.41,4.06-9.29,9.74-9.29c5.67,0,9.71,3.87,9.71,9.29c0,5.42-4.04,9.29-9.71,9.29
		C32.68,191.29,28.62,187.41,28.62,182z M43,182c0-2.77-1.95-4.76-4.64-4.76c-2.69,0-4.67,2-4.67,4.76c0,2.75,1.98,4.76,4.67,4.76
		C41.05,186.76,43,184.77,43,182z"/>
	<path class="st1" d="M63.82,186.62v4.23H52.29v-17.69H63.6v4.21h-6.47v2.61h5.81v4h-5.81v2.65H63.82z"/>
	<path class="st1" d="M84.11,173.16v17.69h-4.03l-7.03-9.6v9.6h-4.72v-17.69h4.26l6.79,9.28v-9.28H84.11z"/>
	<path class="st1" d="M120.65,173.16l-5.45,17.69h-4.29l-3.39-8.54l-3.33,8.54H99.9l-5.54-17.69h5.23l2.87,10.19l4.21-10.11h1.69
		l4.29,10.11l2.81-10.2H120.65z"/>
	<path class="st1" d="M135.76,186.62v4.23h-11.53v-17.69h11.32v4.21h-6.47v2.61h5.81v4h-5.81v2.65H135.76z"/>
	<path class="st1" d="M163.25,173.16v17.69h-4.03l-7.03-9.6v9.6h-4.72v-17.69h4.26l6.79,9.28v-9.28H163.25z"/>
	<path class="st1" d="M178.02,190.85l-2.91-5.43l-2.94,5.43h-5.53l5.32-9.21l-5.02-8.48h5.5l2.65,5l2.67-5h5.42l-4.97,8.57
		l5.32,9.12H178.02z"/>
	<path class="st1" d="M186.68,192.94c1.36-0.12,2-1.01,2-2.09h-2.2v-4.37h4.59v3.99c0,2.75-1.79,4.55-4.4,4.79V192.94z"/>
	<path class="st1" d="M219.31,181.99c0,5.16-3.79,8.86-9.13,8.86h-7.16v-17.69h7.16C215.53,173.16,219.31,176.82,219.31,181.99z
		 M214.31,181.99c0-2.62-1.75-4.37-4.37-4.37h-2.03v8.76h2.03C212.57,186.39,214.31,184.6,214.31,181.99z"/>
	<path class="st1" d="M233.46,187.97h-6.27l-0.98,2.87h-5.22l6.95-17.69h4.76l7.1,17.69h-5.37L233.46,187.97z M230.31,178.68
		l-1.94,5.48h3.89L230.31,178.68z"/>
	<path class="st1" d="M259,173.16v17.69h-4.03l-7.03-9.6v9.6h-4.72v-17.69h4.26l6.79,9.28v-9.28H259z"/>
	<path class="st1" d="M287.26,173.16l-6.77,17.69h-4.54l-6.92-17.69h5.56l3.61,10.99l3.52-10.99H287.26z"/>
	<path class="st1" d="M302.29,186.62v4.23h-11.53v-17.69h11.32v4.21h-6.47v2.61h5.81v4h-5.81v2.65H302.29z"/>
	<path class="st1" d="M313.44,185.44h-1.77v5.41h-4.87v-17.69h7.67c3.81,0,6.58,2.56,6.58,6.26c0,2.17-1.06,3.95-2.81,4.99
		l3.51,6.43h-5.44L313.44,185.44z M311.67,181.33h2.23c1.36,0,2.15-0.82,2.15-1.92c0-1.1-0.78-1.92-2.15-1.92h-2.23V181.33z"/>
	<path class="st1" d="M341.89,181.99c0,5.16-3.79,8.86-9.13,8.86h-7.16v-17.69h7.16C338.11,173.16,341.89,176.82,341.89,181.99z
		 M336.89,181.99c0-2.62-1.75-4.37-4.37-4.37h-2.03v8.76h2.03C335.15,186.39,336.89,184.6,336.89,181.99z"/>
	<path class="st1" d="M370.26,173.16l-5.45,17.69h-4.29l-3.39-8.54l-3.33,8.54h-4.29l-5.54-17.69h5.23l2.87,10.19l4.21-10.11h1.69
		l4.29,10.11l2.81-10.2H370.26z"/>
	<path class="st1" d="M373.84,173.16h4.94v17.69h-4.94V173.16z"/>
	<path class="st1" d="M382.61,184.78v-0.7h4.91v0.45c0,1.36,0.8,2.23,2.01,2.23c1.15,0,1.95-0.86,1.95-2.23v-11.37h4.91v11.62
		c0,3.83-2.76,6.51-6.86,6.51C385.46,191.29,382.61,188.63,382.61,184.78z"/>
	<path class="st1" d="M417.14,173.16v17.69h-4.03l-7.03-9.6v9.6h-4.72v-17.69h4.26l6.79,9.28v-9.28H417.14z"/>
	<path class="st1" d="M435.55,177.55h-4.8v13.3h-4.89v-13.3h-4.8v-4.39h14.5V177.55z"/>
	<path class="st1" d="M463.45,190.85l-1.38-10.19l-4.69,10.21h-1.44l-4.69-10.21l-1.36,10.18h-4.94l2.67-17.69h4.87l4.16,9.62
		l4.19-9.62h4.87l2.65,17.69H463.45z"/>
	<path class="st1" d="M482.11,190.85l-2.91-5.43l-2.94,5.43h-5.53l5.32-9.21l-5.02-8.48h5.5l2.65,5l2.67-5h5.42l-4.97,8.57
		l5.32,9.12H482.11z"/>
	<path class="st1" d="M490.98,186.48h4.56v4.37h-4.56V186.48z M491.08,172.65h4.38v12.31h-4.38V172.65z"/>
</g>
</svg>
