<?xml version="1.0" encoding="utf-8"?>
<!-- Generator: Adobe Illustrator 26.0.2, SVG Export Plug-In . SVG Version: 6.00 Build 0)  -->
<svg version="1.1" id="Laag_1" xmlns="http://www.w3.org/2000/svg" xmlns:xlink="http://www.w3.org/1999/xlink" x="0px" y="0px"
	 viewBox="0 0 973 120.6" style="enable-background:new 0 0 973 120.6;" xml:space="preserve">
<style type="text/css">
	.st0{fill:#FFFFFF;}
</style>
<g transform="translate(0.000000,145.000000) scale(0.100000,-0.100000)">
	<path class="st0" d="M5117.7,1216.1c-36.5-40.9-106.2-73-247.7-116.1c-75.2-22.1-152.6-50.9-171.4-61.9
		c-19.9-11.1-121.6-45.3-227.8-77.4c-173.6-52-204.6-58.6-316.3-61.9c-115-3.3-127.2-1.1-171.4,23.2
		c-80.7,46.4-173.6,71.9-279.8,77.4c-78.5,3.3-108.4,10-140.4,28.8l-42,25.4l-59.7-52c-38.7-32.1-90.7-63-141.5-81.8
		c-44.2-16.6-109.5-48.7-144.9-71.9c-76.3-49.8-288.6-133.8-379.3-150.4c-35.4-7.7-126.1-15.5-199-18.8
		c-160.3-6.6-221.2,7.7-347.2,79.6c-149.3,85.1-193.5,102.8-320.7,131.6c-136,31-203.5,58.6-243.3,100.6
		c-24.3,25.4-26.5,25.4-64.1,11.1c-21-8.8-53.1-16.6-71.9-16.6c-21,0-49.8-13.3-78.5-37.6c-69.7-56.4-374.9-205.7-421.3-205.7
		c-31,0-59.7-15.5-142.6-77.4c-112.8-85.1-230-147.1-335.1-176.9c-37.6-11.1-99.5-37.6-139.3-59.7c-63-35.4-79.6-39.8-151.5-39.8
		c-67.5,0-89.6-5.5-143.8-34.3c-35.4-18.8-79.6-50.9-100.6-71.9L0,244.1l4865.6,1.1H9730l-49.8,22.1
		c-27.6,12.2-99.5,32.1-160.3,44.2c-175.8,35.4-399.2,113.9-487.7,170.3c-108.4,70.8-247.7,139.3-361.6,176.9
		c-77.4,26.5-113.9,46.4-171.4,95.1c-40.9,33.2-117.2,81.8-169.2,107.3c-59.7,28.8-121.6,69.7-167,110.6c-69.7,63-73,65.2-251,117.2
		l-181.4,53.1l-128.3-61.9c-78.5-37.6-142.6-61.9-164.8-61.9c-46.4,0-240-38.7-328.4-65.2c-36.5-11.1-94-24.3-127.2-28.8
		c-103.9-13.3-268.7-134.9-306.3-223.4c-14.4-34.3-17.7-36.5-73-36.5c-37.6,0-95.1-12.2-158.1-34.3c-82.9-28.8-116.1-34.3-209-36.5
		l-110.6-1.1L5978,669.9c-157,82.9-190.2,108.4-256.5,204.6c-95.1,137.1-233.3,237.7-387,283.1c-50.9,14.4-112.8,38.7-139.3,54.2
		c-25.4,15.5-48.7,27.6-52,27.6C5140.9,1239.3,5129.8,1229.4,5117.7,1216.1z"/>
</g>
</svg>
